{"glyphs":{"0":{"ha":541,"x_min":49,"x_max":490,"o":"m 269 920 q 171 816 202 920 q 140 485 140 712 q 172 172 140 273 q 269 71 203 71 q 369 173 337 71 q 400 496 400 275 q 369 818 400 716 q 269 920 337 920 m 49 494 q 102 879 49 755 q 269 1003 156 1003 q 436 879 382 1003 q 490 494 490 754 q 436 112 490 235 q 269 -12 382 -12 q 102 111 156 -12 q 49 494 49 233 z "},"1":{"ha":541,"x_min":106,"x_max":322,"o":"m 235 908 l 106 908 l 126 990 l 322 990 l 322 0 l 235 0 l 235 908 z "},"2":{"ha":541,"x_min":40,"x_max":461,"o":"m 146 724 l 60 724 l 60 737 q 112 934 60 865 q 260 1003 163 1003 q 404 940 347 1003 q 461 777 461 876 q 405 546 461 689 q 178 83 348 403 l 452 83 l 452 0 l 40 0 q 309 541 246 389 q 372 774 372 692 q 342 880 372 840 q 261 920 311 920 q 175 874 204 920 q 146 742 146 829 l 146 724 z "},"3":{"ha":541,"x_min":61,"x_max":469,"o":"m 151 267 l 151 245 q 178 115 151 158 q 260 72 205 72 q 350 126 319 72 q 380 283 380 180 q 342 452 380 405 q 208 500 304 500 q 193 499 203 500 q 176 498 182 498 l 177 582 q 191 581 183 581 q 212 581 198 581 q 335 625 298 581 q 372 772 372 669 q 345 880 372 843 q 265 917 317 917 q 191 879 217 917 q 164 774 164 842 l 164 764 l 75 764 q 127 942 78 881 q 268 1003 176 1003 q 409 939 358 1003 q 460 762 460 876 q 430 616 460 671 q 345 545 401 560 q 438 456 408 521 q 469 283 469 392 q 413 66 469 144 q 256 -12 356 -12 q 112 55 163 -12 q 61 244 61 122 l 61 267 l 151 267 z "},"4":{"ha":541,"x_min":56,"x_max":486,"o":"m 135 347 l 330 347 l 330 510 q 335 697 330 599 q 349 904 340 796 q 315 811 333 859 q 278 713 298 764 l 135 347 m 330 269 l 56 269 l 56 351 l 321 990 l 414 990 l 414 347 l 486 347 l 486 269 l 414 269 l 414 0 l 330 0 l 330 269 z "},"5":{"ha":541,"x_min":77,"x_max":479,"o":"m 104 126 q 174 88 140 100 q 240 75 208 75 q 349 131 310 75 q 389 286 389 186 q 348 456 389 396 q 235 517 308 517 q 160 505 196 517 q 92 469 125 493 l 154 990 l 453 990 l 453 909 l 227 909 l 191 596 q 226 601 212 600 q 252 603 240 603 q 415 520 351 603 q 479 302 479 437 q 416 73 479 157 q 244 -12 352 -12 q 159 -1 201 -12 q 77 35 118 11 l 104 126 z "},"6":{"ha":541,"x_min":75,"x_max":490,"o":"m 282 481 q 194 430 225 481 q 163 285 163 378 q 194 123 163 180 q 285 66 226 66 q 371 121 340 66 q 401 273 401 175 q 371 428 401 374 q 282 481 340 481 m 164 640 l 310 990 l 403 990 l 196 513 q 251 546 223 536 q 310 557 278 557 q 440 481 391 557 q 490 281 490 406 q 436 66 490 145 q 289 -12 382 -12 q 132 62 188 -12 q 75 271 75 136 q 97 446 75 356 q 164 640 118 535 z "},"7":{"ha":541,"x_min":86,"x_max":497,"o":"m 385 909 l 86 909 l 86 990 l 497 990 l 184 0 l 96 0 l 385 909 z "},"8":{"ha":541,"x_min":60,"x_max":481,"o":"m 268 924 q 191 880 220 924 q 163 762 163 837 q 191 631 163 677 q 271 585 218 585 q 349 630 321 585 q 378 754 378 675 q 350 880 378 837 q 268 924 321 924 m 269 66 q 359 121 327 66 q 392 272 392 175 q 360 446 392 386 q 269 505 329 505 q 179 451 210 505 q 147 293 147 397 q 179 126 147 185 q 269 66 212 66 m 358 547 q 451 457 421 523 q 481 278 481 391 q 425 64 481 140 q 269 -12 369 -12 q 115 64 170 -12 q 60 278 60 140 q 90 457 60 391 q 182 547 119 523 q 105 623 133 566 q 78 761 78 679 q 129 939 78 876 q 269 1003 179 1003 q 411 939 359 1003 q 463 761 463 875 q 435 623 463 679 q 358 547 408 566 z "},"9":{"ha":541,"x_min":69,"x_max":485,"o":"m 278 510 q 366 561 334 510 q 397 705 397 612 q 366 867 397 810 q 275 924 334 924 q 189 869 219 924 q 158 711 158 814 q 189 562 158 614 q 278 510 220 510 m 396 350 l 250 0 l 157 0 l 364 478 q 311 444 338 455 q 253 433 283 433 q 119 508 169 433 q 69 708 69 582 q 124 924 69 844 q 272 1003 179 1003 q 429 929 373 1003 q 485 720 485 854 q 463 545 485 635 q 396 350 441 455 z "},"Ď":{"ha":833,"x_min":69,"x_max":764,"o":"m 69 -245 l 69 979 l 764 979 l 764 -245 l 69 -245 m 147 -168 l 686 -168 l 686 901 l 147 901 l 147 -168 z "}," ":{"ha":269,"x_min":0,"x_max":0,"o":""},"!":{"ha":347,"x_min":111,"x_max":236,"o":"m 131 990 l 216 990 l 216 239 l 131 239 l 131 990 m 174 111 q 218 94 201 111 q 236 50 236 76 q 218 6 236 24 q 174 -12 199 -12 q 130 7 149 -12 q 111 50 111 26 q 129 94 111 76 q 174 111 147 111 z "},"\"":{"ha":374,"x_min":68,"x_max":306,"o":"m 306 972 l 306 597 l 248 597 l 248 972 l 306 972 m 126 972 l 126 597 l 68 597 l 68 972 l 126 972 z "},"#":{"ha":1068,"x_min":87,"x_max":981,"o":"m 664 587 l 481 587 l 414 396 l 596 396 l 664 587 m 621 986 l 503 648 l 686 648 l 806 986 l 880 986 l 762 648 l 981 648 l 960 587 l 741 587 l 672 396 l 908 396 l 888 335 l 650 335 l 532 0 l 456 0 l 575 335 l 392 335 l 271 0 l 196 0 l 314 335 l 87 335 l 109 396 l 336 396 l 404 587 l 160 587 l 179 648 l 427 648 l 546 986 l 621 986 z "},"$":{"ha":541,"x_min":50,"x_max":504,"o":"m 109 154 q 177 104 140 121 q 256 87 215 87 q 371 135 325 87 q 418 250 418 182 q 408 318 418 288 q 376 372 398 348 q 265 460 345 408 q 232 484 243 475 q 96 610 133 553 q 60 741 60 666 q 97 881 60 821 q 200 968 134 941 l 200 1092 l 249 1092 l 249 981 q 252 981 250 981 q 288 983 277 983 l 301 983 l 301 1092 l 350 1092 l 350 979 q 413 960 381 974 q 478 924 445 947 l 433 856 q 366 892 399 881 q 294 904 333 904 q 188 860 231 904 q 144 751 144 817 q 171 659 144 700 q 268 566 198 617 q 315 532 283 554 q 435 437 397 477 q 486 357 468 402 q 504 265 504 313 q 464 116 504 180 q 350 21 423 52 l 350 -104 l 301 -104 l 301 8 q 272 4 285 5 q 249 3 260 3 l 249 -104 l 200 -104 l 200 8 q 124 36 161 16 q 50 90 88 56 l 109 154 z "},"%":{"ha":895,"x_min":43,"x_max":850,"o":"m 700 530 q 639 473 659 530 q 619 292 619 416 q 639 110 619 168 q 700 52 659 52 q 761 110 741 52 q 781 292 781 168 q 761 473 781 416 q 700 530 742 530 m 550 290 q 587 520 550 446 q 700 595 623 595 q 813 520 777 595 q 850 290 850 446 q 813 61 850 135 q 700 -12 777 -12 q 587 61 623 -12 q 550 290 550 135 m 193 939 q 132 881 151 939 q 113 700 113 824 q 132 518 113 576 q 193 460 152 460 q 254 518 235 460 q 273 700 273 576 q 254 881 273 824 q 193 939 235 939 m 43 699 q 79 929 43 855 q 192 1003 115 1003 q 306 928 269 1003 q 343 699 343 854 q 306 470 343 544 q 192 396 269 396 q 79 469 115 396 q 43 699 43 542 m 214 -12 l 611 1003 l 679 1003 l 282 -12 l 214 -12 z "},"&":{"ha":631,"x_min":68,"x_max":624,"o":"m 278 595 q 372 708 340 654 q 404 806 404 762 q 376 880 404 851 q 306 909 349 909 q 232 877 260 909 q 203 793 203 844 q 221 711 203 760 q 278 595 239 663 m 256 471 q 176 370 203 425 q 149 256 149 315 q 193 123 149 176 q 302 69 237 69 q 369 86 336 69 q 435 138 402 104 l 256 471 m 472 68 q 387 10 431 29 q 296 -9 343 -9 q 134 65 199 -9 q 68 249 68 139 q 104 403 68 331 q 215 541 141 475 q 141 695 161 642 q 122 791 122 749 q 175 931 122 878 q 317 983 229 983 q 435 933 389 983 q 482 806 482 883 q 440 671 482 740 q 314 529 398 602 l 494 197 q 533 238 515 218 q 568 281 551 258 l 624 225 q 577 170 599 194 q 532 125 555 146 l 599 0 l 507 0 l 472 68 z "},"'":{"ha":193,"x_min":68,"x_max":126,"o":"m 126 972 l 126 597 l 68 597 l 68 972 l 126 972 z "},"(":{"ha":340,"x_min":79,"x_max":323,"o":"m 245 1076 l 323 1042 q 205 728 245 889 q 165 399 165 566 q 205 70 165 231 q 323 -243 245 -90 l 245 -278 q 121 61 162 -106 q 79 399 79 229 q 121 738 79 569 q 245 1076 162 906 z "},")":{"ha":340,"x_min":18,"x_max":261,"o":"m 94 -278 l 18 -243 q 136 69 96 -92 q 175 399 175 230 q 136 729 175 568 q 18 1042 96 890 l 94 1076 q 220 738 178 906 q 261 399 261 569 q 220 61 261 229 q 94 -278 178 -106 z "},"*":{"ha":482,"x_min":81,"x_max":400,"o":"m 212 754 l 103 684 l 81 728 l 195 800 l 81 873 l 104 918 l 212 847 l 212 990 l 268 990 l 268 847 l 376 918 l 400 873 l 285 800 l 400 728 l 376 684 l 268 754 l 268 611 l 212 611 l 212 754 z "},"+":{"ha":1157,"x_min":172,"x_max":985,"o":"m 606 828 l 606 441 l 985 441 l 985 386 l 606 386 l 606 0 l 551 0 l 551 386 l 172 386 l 172 441 l 551 441 l 551 828 l 606 828 z "},",":{"ha":269,"x_min":-8,"x_max":204,"o":"m -8 -180 l 117 117 l 204 74 l 52 -212 l -8 -180 z "},"-":{"ha":374,"x_min":53,"x_max":319,"o":"m 53 379 l 319 379 l 319 304 l 53 304 l 53 379 z "},".":{"ha":269,"x_min":72,"x_max":197,"o":"m 135 111 q 179 94 161 111 q 197 50 197 76 q 179 6 197 24 q 135 -12 160 -12 q 91 7 110 -12 q 72 50 72 26 q 90 94 72 76 q 135 111 109 111 z "},"/":{"ha":386,"x_min":-79,"x_max":419,"o":"m 343 1003 l 419 1003 l -3 -129 l -79 -129 l 343 1003 z "},":":{"ha":269,"x_min":72,"x_max":197,"o":"m 135 505 q 179 487 161 505 q 197 443 197 469 q 179 400 197 418 q 135 382 161 382 q 91 400 110 382 q 72 443 72 419 q 90 487 72 469 q 135 505 109 505 m 135 111 q 179 94 161 111 q 197 50 197 76 q 179 6 197 24 q 135 -12 160 -12 q 91 7 110 -12 q 72 50 72 26 q 90 94 72 76 q 135 111 109 111 z "},";":{"ha":269,"x_min":-8,"x_max":204,"o":"m 139 510 q 183 492 165 510 q 201 447 201 473 q 183 403 201 422 q 139 385 165 385 q 96 404 115 385 q 78 447 78 422 q 96 492 78 473 q 139 510 113 510 m -8 -180 l 117 117 l 204 74 l 52 -212 l -8 -180 z "},"<":{"ha":1157,"x_min":179,"x_max":978,"o":"m 978 701 l 269 414 l 978 126 l 978 66 l 179 393 l 179 435 l 978 762 l 978 701 z "},"=":{"ha":1157,"x_min":172,"x_max":985,"o":"m 985 318 l 985 262 l 172 262 l 172 318 l 985 318 m 985 564 l 985 510 l 172 510 l 172 564 l 985 564 z "},">":{"ha":1157,"x_min":179,"x_max":978,"o":"m 978 435 l 978 393 l 179 66 l 179 126 l 888 414 l 179 701 l 179 762 l 978 435 z "},"?":{"ha":443,"x_min":66,"x_max":396,"o":"m 186 111 q 231 94 213 111 q 249 50 249 76 q 230 6 249 24 q 186 -12 212 -12 q 142 7 161 -12 q 123 50 123 26 q 142 94 123 76 q 186 111 160 111 m 139 561 l 192 561 q 284 600 260 561 q 309 765 309 640 q 291 897 309 865 q 228 929 273 929 q 170 901 189 929 q 150 818 150 873 l 150 742 l 66 742 l 66 807 q 104 957 66 911 q 229 1003 142 1003 q 357 949 317 1003 q 396 774 396 896 q 357 552 396 617 q 227 485 318 488 l 227 245 l 139 245 l 139 561 z "},"@":{"ha":1389,"x_min":82,"x_max":1307,"o":"m 884 561 l 925 648 l 979 648 l 886 273 q 876 230 880 249 q 872 200 872 210 q 893 154 872 170 q 951 138 913 138 q 1019 151 984 138 q 1089 189 1055 164 q 1199 330 1158 239 q 1240 521 1240 420 q 1105 819 1240 706 q 749 932 970 932 q 538 899 635 932 q 363 802 441 867 q 205 600 258 715 q 153 346 153 486 q 303 -8 153 124 q 704 -140 453 -140 q 924 -106 813 -140 q 1126 -9 1034 -72 l 1146 -40 q 937 -152 1047 -115 q 707 -189 827 -189 q 474 -158 580 -189 q 286 -64 368 -126 q 133 118 183 14 q 82 354 82 221 q 116 562 82 464 q 216 742 151 661 q 451 922 314 861 q 755 983 587 983 q 962 954 864 983 q 1131 869 1060 924 q 1262 716 1217 803 q 1307 528 1307 629 q 1264 319 1307 413 q 1141 161 1221 224 q 1043 105 1096 125 q 935 86 989 86 q 837 111 870 86 q 804 184 804 136 q 806 208 804 193 q 807 211 807 210 q 722 119 774 151 q 610 86 671 86 q 451 142 505 86 q 397 307 397 199 q 489 569 397 462 q 710 676 580 676 q 819 647 774 676 q 884 561 863 618 m 827 317 l 869 489 q 814 591 854 556 q 711 627 774 627 q 538 533 608 627 q 468 302 468 439 q 507 180 468 224 q 615 136 546 136 q 748 185 690 136 q 827 317 806 235 z "},"A":{"ha":509,"x_min":20,"x_max":504,"o":"m 243 741 l 161 279 l 357 279 l 277 741 q 268 806 272 768 q 261 888 264 844 q 253 809 258 846 q 243 741 249 772 m 216 990 l 302 990 l 504 0 l 412 0 l 374 200 l 147 200 l 113 0 l 20 0 l 216 990 z "},"B":{"ha":559,"x_min":100,"x_max":490,"o":"m 191 909 l 191 550 l 245 550 q 347 592 316 550 q 378 730 378 633 q 348 869 378 828 q 250 909 319 909 l 191 909 m 191 469 l 191 81 l 232 81 q 361 121 326 81 q 397 269 397 162 q 361 421 397 373 q 248 469 325 469 l 191 469 m 100 990 l 248 990 q 415 929 361 990 q 469 737 469 868 q 436 584 469 642 q 343 511 404 525 q 455 430 419 490 q 490 264 490 370 q 429 66 490 132 q 244 0 368 0 l 100 0 l 100 990 z "},"C":{"ha":457,"x_min":52,"x_max":447,"o":"m 444 26 q 383 2 416 10 q 315 -7 350 -7 q 116 115 181 -7 q 52 488 52 237 q 121 867 52 738 q 325 996 190 996 q 389 989 359 996 q 447 968 419 982 l 447 871 q 388 901 415 892 q 335 911 361 911 q 192 811 237 911 q 146 500 146 711 q 188 175 146 270 q 329 79 231 79 q 368 83 349 79 q 404 96 387 87 q 425 107 414 100 q 444 121 435 113 l 444 26 z "},"D":{"ha":566,"x_min":100,"x_max":514,"o":"m 191 908 l 191 83 l 208 83 q 375 165 328 83 q 421 479 421 248 q 376 824 421 739 q 214 908 332 908 l 191 908 m 100 990 l 212 990 q 448 885 381 990 q 514 492 514 779 q 446 109 514 218 q 210 0 377 0 l 100 0 l 100 990 z "},"E":{"ha":479,"x_min":100,"x_max":418,"o":"m 100 990 l 411 990 l 411 907 l 191 907 l 191 550 l 408 550 l 408 469 l 191 469 l 191 83 l 418 83 l 418 0 l 100 0 l 100 990 z "},"F":{"ha":450,"x_min":100,"x_max":411,"o":"m 100 990 l 411 990 l 411 907 l 191 907 l 191 555 l 408 555 l 408 476 l 191 476 l 191 0 l 100 0 l 100 990 z "},"G":{"ha":530,"x_min":52,"x_max":490,"o":"m 490 818 l 407 783 q 361 883 391 849 q 289 917 332 917 q 180 813 216 917 q 144 496 144 709 q 178 170 144 269 q 288 71 212 71 q 374 122 346 71 q 401 285 401 174 l 401 435 l 264 435 l 264 518 l 490 518 l 490 296 q 438 64 490 141 q 283 -14 387 -14 q 107 107 163 -14 q 52 494 52 229 q 111 879 52 754 q 294 1003 170 1003 q 414 955 363 1003 q 490 818 465 907 z "},"H":{"ha":616,"x_min":100,"x_max":517,"o":"m 100 990 l 191 990 l 191 591 l 427 591 l 427 990 l 517 990 l 517 0 l 427 0 l 427 513 l 191 513 l 191 0 l 100 0 l 100 990 z "},"I":{"ha":289,"x_min":100,"x_max":191,"o":"m 100 0 l 100 990 l 191 990 l 191 0 l 100 0 z "},"J":{"ha":357,"x_min":4,"x_max":257,"o":"m 4 106 q 45 78 22 87 q 94 68 68 68 q 152 97 136 68 q 168 210 168 127 l 168 990 l 257 990 l 257 200 q 223 35 257 84 q 113 -14 190 -14 q 57 -8 84 -14 q 4 9 30 -2 l 4 106 z "},"K":{"ha":492,"x_min":100,"x_max":492,"o":"m 100 990 l 191 990 l 191 0 l 100 0 l 100 990 m 400 990 l 492 990 l 278 515 l 492 0 l 396 0 l 191 511 l 400 990 z "},"L":{"ha":399,"x_min":100,"x_max":403,"o":"m 100 990 l 191 990 l 191 82 l 403 82 l 403 0 l 100 0 l 100 990 z "},"M":{"ha":733,"x_min":26,"x_max":705,"o":"m 160 990 l 240 990 l 340 349 q 359 196 343 331 q 368 110 364 142 q 381 224 373 164 q 400 349 389 283 l 507 990 l 585 990 l 705 0 l 623 0 l 555 648 q 554 663 555 652 q 538 863 544 773 q 523 715 530 772 q 509 614 516 658 l 406 0 l 328 0 l 229 639 q 227 654 229 644 q 200 863 208 774 q 191 747 196 818 q 180 630 182 644 l 109 0 l 26 0 l 160 990 z "},"N":{"ha":611,"x_min":100,"x_max":513,"o":"m 100 990 l 178 990 l 401 313 q 420 243 406 298 q 456 104 435 188 q 440 286 445 193 q 435 478 435 379 l 435 990 l 513 990 l 513 0 l 435 0 l 216 667 q 186 767 201 714 q 155 888 172 821 q 172 690 167 783 q 178 517 178 597 l 178 0 l 100 0 l 100 990 z "},"O":{"ha":595,"x_min":52,"x_max":543,"o":"m 297 920 q 181 818 218 920 q 144 496 144 715 q 181 173 144 276 q 297 71 218 71 q 413 172 376 71 q 450 496 450 273 q 413 819 450 718 q 297 920 376 920 m 52 494 q 111 879 52 755 q 297 1003 171 1003 q 483 879 423 1003 q 543 494 543 755 q 483 111 543 234 q 297 -12 423 -12 q 111 111 171 -12 q 52 494 52 234 z "},"P":{"ha":504,"x_min":100,"x_max":472,"o":"m 191 909 l 191 555 l 240 555 q 349 597 316 555 q 382 736 382 640 q 346 868 382 826 q 233 909 310 909 l 191 909 m 100 990 l 227 990 q 414 927 355 990 q 472 724 472 863 q 416 535 472 595 q 239 475 359 475 l 191 475 l 191 0 l 100 0 l 100 990 z "},"Q":{"ha":595,"x_min":52,"x_max":543,"o":"m 367 97 l 277 237 l 338 278 l 416 151 q 441 287 433 199 q 450 496 450 375 q 413 819 450 718 q 297 920 376 920 q 181 818 218 920 q 144 496 144 715 q 181 171 144 271 q 300 71 218 71 q 336 77 319 71 q 367 97 352 83 m 410 26 q 356 -3 384 7 q 297 -12 328 -12 q 111 111 171 -12 q 52 494 52 234 q 111 879 52 755 q 297 1003 171 1003 q 483 879 423 1003 q 543 494 543 755 q 524 243 543 346 q 464 82 504 140 l 534 -26 l 472 -68 l 410 26 z "},"R":{"ha":530,"x_min":100,"x_max":503,"o":"m 191 907 l 191 549 l 233 549 q 343 591 309 549 q 378 726 378 633 q 344 864 378 822 q 233 907 310 907 l 191 907 m 100 990 l 210 990 q 411 931 352 990 q 471 730 471 871 q 426 552 471 612 q 288 485 381 492 l 503 0 l 408 0 l 191 511 l 191 0 l 100 0 l 100 990 z "},"S":{"ha":509,"x_min":50,"x_max":467,"o":"m 61 153 q 136 92 97 113 q 218 72 176 72 q 332 122 288 72 q 376 252 376 172 q 367 314 376 286 q 339 367 358 342 q 236 458 310 404 q 192 492 206 480 q 83 612 117 553 q 50 745 50 671 q 116 929 50 856 q 281 1003 182 1003 q 358 989 320 1003 q 433 949 397 976 l 433 832 q 366 896 404 874 q 285 918 328 918 q 180 872 220 918 q 140 753 140 827 q 168 645 140 690 q 296 525 195 600 q 433 392 400 448 q 467 257 467 335 q 399 63 467 139 q 227 -12 331 -12 q 140 -1 181 -12 q 61 35 100 11 l 61 153 z "},"T":{"ha":421,"x_min":9,"x_max":408,"o":"m 164 909 l 9 909 l 9 990 l 408 990 l 408 909 l 254 909 l 254 0 l 164 0 l 164 909 z "},"U":{"ha":619,"x_min":98,"x_max":518,"o":"m 98 990 l 189 990 l 189 282 q 216 113 189 158 q 309 68 242 68 q 401 113 375 68 q 428 282 428 158 l 428 990 l 518 990 l 518 282 q 470 53 518 118 q 309 -12 422 -12 q 146 53 194 -12 q 98 282 98 118 l 98 990 z "},"V":{"ha":521,"x_min":20,"x_max":505,"o":"m 20 990 l 110 990 l 239 307 q 251 231 244 281 q 265 119 258 181 q 289 298 269 186 l 290 306 l 414 990 l 505 990 l 304 0 l 224 0 l 20 990 z "},"W":{"ha":785,"x_min":21,"x_max":775,"o":"m 21 990 l 111 990 l 203 371 q 216 251 211 317 q 225 106 222 186 q 236 209 229 153 q 256 342 243 264 l 358 990 l 443 990 l 547 335 q 561 235 555 290 q 571 109 566 180 q 587 257 579 180 q 596 342 595 334 l 686 990 l 775 990 l 611 0 l 532 0 l 425 656 q 406 787 412 735 q 400 883 401 840 q 390 772 397 828 q 375 660 384 716 l 264 0 l 182 0 l 21 990 z "},"X":{"ha":476,"x_min":0,"x_max":476,"o":"m 195 503 l 12 990 l 107 990 l 208 692 q 222 647 214 678 q 241 564 230 616 q 259 633 250 600 q 278 697 268 667 l 376 990 l 468 990 l 289 504 l 476 0 l 380 0 l 275 311 q 257 367 266 337 q 240 435 249 397 q 225 378 234 408 q 201 304 216 349 l 98 0 l 0 0 l 195 503 z "},"Y":{"ha":457,"x_min":-3,"x_max":458,"o":"m 183 432 l -3 990 l 92 990 l 231 534 l 367 990 l 458 990 l 273 429 l 273 0 l 183 0 l 183 432 z "},"Z":{"ha":425,"x_min":14,"x_max":414,"o":"m 300 908 l 52 908 l 52 990 l 414 990 l 129 83 l 380 83 l 380 0 l 14 0 l 300 908 z "},"[":{"ha":340,"x_min":102,"x_max":317,"o":"m 102 1061 l 317 1061 l 317 986 l 183 986 l 183 -186 l 317 -186 l 317 -260 l 102 -260 l 102 1061 z "},"\\":{"ha":386,"x_min":-33,"x_max":464,"o":"m 43 1003 l 464 -129 l 389 -129 l -33 1003 l 43 1003 z "},"]":{"ha":340,"x_min":24,"x_max":239,"o":"m 239 -260 l 24 -260 l 24 -186 l 157 -186 l 157 987 l 24 987 l 24 1061 l 239 1061 l 239 -260 z "},"^":{"ha":1389,"x_min":288,"x_max":1100,"o":"m 733 989 l 1100 611 l 1015 611 l 694 929 l 372 611 l 288 611 l 653 989 l 733 989 z "},"_":{"ha":694,"x_min":0,"x_max":694,"o":"m 694 -273 l 694 -328 l 0 -328 l 0 -273 l 694 -273 z "},"`":{"ha":694,"x_min":220,"x_max":415,"o":"m 301 993 l 415 757 l 366 757 l 220 993 l 301 993 z "},"a":{"ha":489,"x_min":50,"x_max":410,"o":"m 134 329 q 156 114 134 173 q 235 56 179 56 q 311 116 288 56 q 334 329 334 177 q 311 543 334 481 q 235 604 288 604 q 156 545 179 604 q 134 329 134 485 m 329 0 l 329 61 q 283 7 314 26 q 212 -12 252 -12 q 89 72 127 -12 q 50 349 50 155 q 89 595 50 517 q 212 673 128 673 q 279 656 250 673 q 329 603 309 638 l 329 665 l 410 665 l 410 0 l 329 0 z "},"b":{"ha":489,"x_min":79,"x_max":439,"o":"m 254 56 q 333 115 310 56 q 355 329 355 174 q 333 545 355 485 q 254 604 310 604 q 178 543 201 604 q 155 329 155 481 q 178 116 155 177 q 254 56 201 56 m 79 1051 l 161 1051 l 161 606 q 209 656 179 639 q 277 673 238 673 q 400 593 361 673 q 439 332 439 513 q 399 71 439 154 q 275 -12 359 -12 q 205 7 235 -12 q 158 61 175 26 l 158 0 l 79 0 l 79 1051 z "},"c":{"ha":367,"x_min":57,"x_max":345,"o":"m 345 648 l 345 553 q 306 587 326 576 q 262 597 286 597 q 170 530 199 597 q 140 317 140 463 q 170 132 140 194 q 260 69 200 69 q 307 82 286 69 q 343 119 328 94 l 343 22 q 296 -1 320 7 q 245 -8 273 -8 q 107 79 158 -8 q 57 321 57 166 q 109 585 57 496 q 262 673 160 673 q 306 667 285 673 q 345 648 327 661 z "},"d":{"ha":489,"x_min":50,"x_max":410,"o":"m 134 329 q 156 114 134 173 q 235 56 179 56 q 311 116 288 56 q 334 329 334 177 q 311 543 334 481 q 235 604 288 604 q 156 545 179 604 q 134 329 134 485 m 328 0 l 328 61 q 283 7 313 26 q 212 -12 253 -12 q 89 72 127 -12 q 50 349 50 155 q 89 595 50 517 q 212 673 128 673 q 280 656 251 673 q 328 606 310 639 l 328 1051 l 410 1051 l 410 0 l 328 0 z "},"e":{"ha":447,"x_min":45,"x_max":415,"o":"m 337 380 q 310 545 336 486 q 237 603 284 603 q 158 545 188 603 q 125 380 129 488 l 337 380 m 415 313 l 125 313 l 125 290 q 153 119 125 180 q 232 58 182 58 q 299 102 273 58 q 328 220 326 146 l 407 220 q 355 50 402 113 q 231 -12 307 -12 q 91 73 138 -12 q 45 328 45 158 q 95 586 45 494 q 235 677 145 677 q 370 591 324 677 q 415 335 415 505 l 415 313 z "},"f":{"ha":267,"x_min":12,"x_max":286,"o":"m 89 597 l 12 597 l 12 665 l 89 665 l 89 875 q 118 1018 89 973 q 211 1063 147 1063 q 249 1060 230 1063 q 286 1051 267 1057 l 286 957 q 255 979 270 972 q 225 986 240 986 q 183 964 195 986 q 171 867 171 943 l 171 665 l 286 665 l 286 597 l 171 597 l 171 0 l 89 0 l 89 597 z "},"g":{"ha":489,"x_min":50,"x_max":410,"o":"m 134 329 q 156 114 134 173 q 235 56 179 56 q 311 116 288 56 q 334 329 334 177 q 311 543 334 481 q 235 604 288 604 q 156 545 179 604 q 134 329 134 485 m 65 -69 l 140 -69 l 140 -79 q 164 -171 140 -140 q 233 -201 187 -201 q 305 -168 283 -201 q 328 -61 328 -135 l 328 57 q 283 8 311 25 q 215 -8 254 -8 q 88 73 126 -8 q 50 351 50 153 q 90 595 50 517 q 212 673 129 673 q 279 655 250 673 q 328 603 309 637 l 328 665 l 410 665 l 410 0 q 405 -124 410 -87 q 387 -183 399 -161 q 326 -249 364 -227 q 235 -271 287 -271 q 110 -220 155 -271 q 65 -81 65 -170 l 65 -69 z "},"h":{"ha":494,"x_min":79,"x_max":424,"o":"m 79 1051 l 161 1051 l 161 604 q 216 656 183 639 q 289 673 248 673 q 392 624 359 673 q 424 461 424 574 l 424 0 l 342 0 l 342 473 q 323 581 342 551 q 260 610 305 610 q 186 567 212 610 q 161 443 161 525 l 161 0 l 79 0 l 79 1051 z "},"i":{"ha":241,"x_min":58,"x_max":182,"o":"m 119 929 q 164 911 146 929 q 182 868 182 894 q 163 825 182 844 q 119 807 145 807 q 77 826 95 807 q 58 869 58 844 q 76 912 58 895 q 119 929 94 929 m 78 665 l 161 665 l 161 0 l 78 0 l 78 665 z "},"j":{"ha":241,"x_min":58,"x_max":182,"o":"m 119 929 q 164 911 146 929 q 182 868 182 894 q 163 825 182 844 q 119 807 145 807 q 77 826 95 807 q 58 869 58 844 q 76 912 58 895 q 119 929 94 929 m 78 665 l 161 665 l 161 -254 l 78 -254 l 78 665 z "},"k":{"ha":453,"x_min":79,"x_max":484,"o":"m 332 665 l 424 665 l 245 376 l 484 0 l 386 0 l 163 371 l 332 665 m 79 1051 l 161 1051 l 161 0 l 79 0 l 79 1051 z "},"l":{"ha":241,"x_min":78,"x_max":161,"o":"m 78 1051 l 161 1051 l 161 0 l 78 0 l 78 1051 z "},"m":{"ha":757,"x_min":79,"x_max":686,"o":"m 79 665 l 161 665 l 161 604 q 216 656 183 639 q 289 673 248 673 q 362 652 332 673 q 411 589 393 631 q 471 652 435 631 q 551 673 507 673 q 654 624 623 673 q 686 461 686 574 l 686 0 l 604 0 l 604 473 q 586 581 604 551 q 522 610 568 610 q 449 567 474 610 q 424 443 424 525 l 424 0 l 342 0 l 342 473 q 323 581 342 551 q 260 610 305 610 q 186 567 212 610 q 161 443 161 525 l 161 0 l 79 0 l 79 665 z "},"n":{"ha":494,"x_min":79,"x_max":424,"o":"m 79 665 l 161 665 l 161 604 q 216 656 183 639 q 289 673 248 673 q 392 624 359 673 q 424 461 424 574 l 424 0 l 342 0 l 342 473 q 323 581 342 551 q 260 610 305 610 q 186 567 212 610 q 161 443 161 525 l 161 0 l 79 0 l 79 665 z "},"o":{"ha":469,"x_min":45,"x_max":425,"o":"m 235 608 q 154 543 180 608 q 129 334 129 478 q 154 123 129 189 q 235 57 180 57 q 314 124 288 57 q 340 332 340 192 q 314 540 340 472 q 235 608 288 608 m 45 334 q 93 592 45 505 q 236 679 140 679 q 377 591 329 679 q 425 334 425 503 q 377 75 425 163 q 236 -12 330 -12 q 93 75 140 -12 q 45 334 45 161 z "},"p":{"ha":489,"x_min":82,"x_max":441,"o":"m 257 56 q 334 114 312 56 q 357 329 357 172 q 334 546 357 487 q 257 604 312 604 q 181 543 203 604 q 158 329 158 481 q 181 116 158 177 q 257 56 203 56 m 82 665 l 164 665 l 164 610 q 215 658 186 642 q 279 673 243 673 q 403 594 365 673 q 441 332 441 514 q 402 71 441 154 q 278 -12 362 -12 q 215 2 244 -12 q 164 46 186 17 l 164 -267 l 82 -267 l 82 665 z "},"q":{"ha":489,"x_min":47,"x_max":407,"o":"m 131 329 q 154 114 131 173 q 232 56 176 56 q 308 116 286 56 q 330 329 330 177 q 308 543 330 481 q 232 604 286 604 q 154 545 176 604 q 131 329 131 485 m 325 -267 l 325 46 q 273 2 301 16 q 211 -12 244 -12 q 86 72 125 -12 q 47 349 47 157 q 86 595 47 517 q 210 673 125 673 q 273 658 245 673 q 325 610 302 642 l 325 665 l 407 665 l 407 -267 l 325 -267 z "},"r":{"ha":289,"x_min":79,"x_max":271,"o":"m 79 665 l 161 665 l 161 575 q 207 646 180 622 q 271 673 235 671 l 271 585 q 185 542 210 581 q 161 397 161 503 l 161 0 l 79 0 l 79 665 z "},"s":{"ha":367,"x_min":36,"x_max":354,"o":"m 45 131 q 106 79 75 96 q 171 61 138 61 q 246 90 216 61 q 275 165 275 119 q 174 309 275 222 q 164 317 167 314 q 60 426 83 385 q 36 514 36 466 q 82 630 36 585 q 200 676 128 676 q 260 668 231 676 q 318 642 290 659 l 318 557 q 264 594 293 581 q 208 607 236 607 q 141 581 168 607 q 114 517 114 555 q 208 384 114 463 q 214 379 212 381 q 328 262 302 305 q 354 167 354 219 q 304 36 354 87 q 176 -16 254 -16 q 106 -3 140 -16 q 45 33 72 10 l 45 131 z "},"t":{"ha":279,"x_min":24,"x_max":285,"o":"m 93 597 l 24 597 l 24 665 l 93 665 l 93 851 l 175 851 l 175 665 l 285 665 l 285 597 l 175 597 l 175 0 l 93 0 l 93 597 z "},"u":{"ha":493,"x_min":72,"x_max":421,"o":"m 72 665 l 154 665 l 154 229 q 175 100 154 137 q 248 62 197 62 q 318 99 297 62 q 339 229 339 136 l 339 665 l 421 665 l 421 215 q 379 42 421 96 q 248 -12 338 -12 q 114 42 157 -12 q 72 215 72 97 l 72 665 z "},"v":{"ha":415,"x_min":17,"x_max":418,"o":"m 17 665 l 103 665 l 187 239 q 202 152 196 194 q 214 68 209 110 q 243 218 220 109 l 248 239 l 335 665 l 418 665 l 258 0 l 168 0 l 17 665 z "},"w":{"ha":636,"x_min":20,"x_max":642,"o":"m 20 665 l 103 665 l 163 313 q 177 220 170 271 q 195 79 184 169 l 198 105 q 227 294 218 247 l 290 665 l 374 665 l 443 237 q 446 220 444 231 q 464 79 459 132 q 476 179 469 127 q 494 292 484 231 l 561 665 l 642 665 l 504 0 l 419 0 l 353 411 q 342 488 348 444 q 332 585 337 531 q 319 483 326 538 q 311 421 313 428 l 240 0 l 151 0 l 20 665 z "},"x":{"ha":382,"x_min":-1,"x_max":395,"o":"m 151 345 l 12 665 l 100 665 l 170 482 q 175 468 172 477 q 200 391 194 418 q 210 431 203 410 q 227 481 216 452 l 294 665 l 383 665 l 243 346 l 395 0 l 309 0 l 229 201 q 215 242 222 219 q 200 293 208 265 q 184 249 193 272 q 167 201 176 227 l 92 0 l -1 0 l 151 345 z "},"y":{"ha":425,"x_min":11,"x_max":427,"o":"m 176 -8 l 11 665 l 97 665 l 178 282 q 199 174 191 221 q 214 82 208 126 q 243 221 228 148 q 260 302 258 294 l 345 665 l 427 665 l 187 -254 l 107 -254 l 176 -8 z "},"z":{"ha":389,"x_min":-3,"x_max":396,"o":"m 282 597 l 43 597 l 43 665 l 396 665 l 113 71 l 351 71 l 351 0 l -3 0 l 282 597 z "},"{":{"ha":694,"x_min":119,"x_max":575,"o":"m 575 942 l 550 942 q 427 907 458 942 q 395 762 395 872 l 395 599 q 366 431 395 480 q 262 359 336 381 q 366 289 336 338 q 395 121 395 240 l 395 -43 q 426 -187 395 -153 q 549 -221 458 -221 l 575 -221 l 575 -281 l 546 -281 q 371 -230 418 -281 q 325 -26 325 -180 l 325 136 q 286 287 325 243 q 150 330 246 330 q 135 330 145 330 q 119 329 125 329 l 119 390 q 133 389 126 389 q 153 389 140 389 q 286 432 247 389 q 325 583 325 476 l 325 746 q 371 951 325 900 q 546 1002 418 1002 l 575 1002 l 575 942 z "},"|":{"ha":694,"x_min":317,"x_max":378,"o":"m 378 1061 l 378 -328 l 317 -328 l 317 1061 l 378 1061 z "},"}":{"ha":694,"x_min":119,"x_max":575,"o":"m 370 746 l 370 583 q 409 432 370 476 q 545 389 448 389 q 559 389 549 389 q 575 390 569 390 l 575 329 q 559 330 569 329 q 545 330 549 330 q 409 287 448 330 q 370 136 370 243 l 370 -26 q 323 -230 370 -180 q 149 -281 277 -281 l 119 -281 l 119 -221 l 146 -221 q 268 -187 237 -221 q 300 -43 300 -153 l 300 121 q 329 288 300 239 q 433 359 359 338 q 329 431 359 381 q 300 599 300 480 l 300 762 q 268 907 300 872 q 144 942 236 942 l 119 942 l 119 1002 l 149 1002 q 323 951 277 1002 q 370 746 370 900 z "},"~":{"ha":1157,"x_min":121,"x_max":1038,"o":"m 1038 439 q 901 364 966 389 q 775 339 836 339 q 595 380 708 339 q 580 386 584 385 q 557 394 572 389 q 383 435 444 435 q 264 409 327 435 q 121 326 202 384 l 121 389 q 257 463 192 439 q 383 488 322 488 q 567 446 451 488 q 580 441 575 443 q 598 435 585 439 q 775 393 712 393 q 894 419 831 393 q 1038 501 956 444 l 1038 439 z "},"Ä":{"ha":509,"x_min":20,"x_max":504,"o":"m 243 741 l 161 279 l 357 279 l 277 741 q 268 806 272 768 q 261 888 264 844 q 253 809 258 846 q 243 741 249 772 m 216 990 l 302 990 l 504 0 l 412 0 l 374 200 l 147 200 l 113 0 l 20 0 l 216 990 m 340 1233 q 381 1217 364 1233 q 397 1177 397 1201 q 380 1139 397 1156 q 340 1122 363 1122 q 302 1139 319 1122 q 285 1177 285 1156 q 301 1217 285 1200 q 340 1233 317 1233 m 167 1233 q 207 1217 191 1233 q 222 1177 222 1201 q 206 1139 222 1156 q 167 1122 189 1122 q 128 1139 145 1122 q 111 1177 111 1156 q 127 1217 111 1200 q 167 1233 144 1233 z "},"Å":{"ha":509,"x_min":20,"x_max":504,"o":"m 262 1276 q 198 1250 224 1276 q 172 1186 172 1224 q 199 1122 172 1149 q 262 1096 225 1096 q 326 1122 300 1096 q 353 1186 353 1149 q 326 1250 353 1223 q 262 1276 300 1276 m 111 1186 q 155 1294 111 1250 q 262 1337 199 1337 q 369 1294 326 1337 q 412 1186 412 1250 q 369 1079 412 1122 q 262 1036 326 1036 q 155 1079 198 1036 q 111 1186 111 1122 m 243 741 l 161 279 l 357 279 l 277 741 q 268 806 272 768 q 261 888 264 844 q 253 809 258 846 q 243 741 249 772 m 216 990 l 302 990 l 504 0 l 412 0 l 374 200 l 147 200 l 113 0 l 20 0 l 216 990 z "},"Ç":{"ha":457,"x_min":52,"x_max":447,"o":"m 444 26 q 383 2 416 10 q 315 -7 350 -7 q 116 115 181 -7 q 52 488 52 237 q 121 867 52 738 q 325 996 190 996 q 389 989 359 996 q 447 968 419 982 l 447 871 q 388 901 415 892 q 335 911 361 911 q 192 811 237 911 q 146 500 146 711 q 188 175 146 270 q 329 79 231 79 q 368 83 349 79 q 404 96 387 87 q 425 107 414 100 q 444 121 435 113 l 444 26 m 282 0 l 282 -75 l 293 -75 q 381 -105 350 -75 q 412 -189 412 -135 q 378 -279 412 -249 q 278 -310 345 -310 q 221 -303 252 -310 q 151 -283 190 -297 l 151 -232 q 224 -250 193 -244 q 279 -256 256 -256 q 332 -239 313 -256 q 351 -192 351 -222 q 332 -140 351 -157 q 272 -123 313 -123 q 257 -124 262 -123 q 248 -125 252 -124 l 248 0 l 282 0 z "},"É":{"ha":479,"x_min":100,"x_max":418,"o":"m 100 990 l 411 990 l 411 907 l 191 907 l 191 550 l 408 550 l 408 469 l 191 469 l 191 83 l 418 83 l 418 0 l 100 0 l 100 990 m 380 1318 l 235 1082 l 185 1082 l 299 1318 l 380 1318 z "},"Ñ":{"ha":611,"x_min":100,"x_max":513,"o":"m 100 990 l 178 990 l 401 313 q 420 243 406 298 q 456 104 435 188 q 440 286 445 193 q 435 478 435 379 l 435 990 l 513 990 l 513 0 l 435 0 l 216 667 q 186 767 201 714 q 155 888 172 821 q 172 690 167 783 q 178 517 178 597 l 178 0 l 100 0 l 100 990 m 461 1246 q 422 1158 447 1186 q 361 1129 397 1129 q 339 1131 350 1129 q 318 1137 329 1133 l 271 1154 q 268 1155 270 1154 q 242 1160 252 1160 q 214 1148 226 1160 q 193 1112 202 1137 l 149 1112 q 188 1199 161 1168 q 250 1229 214 1229 q 272 1227 263 1229 q 288 1223 281 1226 l 337 1205 q 353 1200 346 1202 q 366 1198 360 1198 q 396 1210 383 1198 q 418 1246 409 1221 l 461 1246 z "},"Ö":{"ha":595,"x_min":52,"x_max":543,"o":"m 297 920 q 181 818 218 920 q 144 496 144 715 q 181 173 144 276 q 297 71 218 71 q 413 172 376 71 q 450 496 450 273 q 413 819 450 718 q 297 920 376 920 m 52 494 q 111 879 52 755 q 297 1003 171 1003 q 483 879 423 1003 q 543 494 543 755 q 483 111 543 234 q 297 -12 423 -12 q 111 111 171 -12 q 52 494 52 234 m 383 1233 q 424 1217 407 1233 q 440 1177 440 1201 q 423 1139 440 1156 q 383 1122 406 1122 q 345 1139 361 1122 q 328 1177 328 1156 q 344 1217 328 1200 q 383 1233 360 1233 m 210 1233 q 249 1217 233 1233 q 265 1177 265 1201 q 249 1139 265 1156 q 210 1122 232 1122 q 171 1139 188 1122 q 154 1177 154 1156 q 170 1217 154 1200 q 210 1233 186 1233 z "},"Ü":{"ha":619,"x_min":98,"x_max":518,"o":"m 98 990 l 189 990 l 189 282 q 216 113 189 158 q 309 68 242 68 q 401 113 375 68 q 428 282 428 158 l 428 990 l 518 990 l 518 282 q 470 53 518 118 q 309 -12 422 -12 q 146 53 194 -12 q 98 282 98 118 l 98 990 m 396 1233 q 436 1217 420 1233 q 453 1177 453 1201 q 436 1139 453 1156 q 396 1122 418 1122 q 357 1139 374 1122 q 340 1177 340 1156 q 357 1217 340 1200 q 396 1233 373 1233 m 222 1233 q 262 1217 246 1233 q 278 1177 278 1201 q 261 1139 278 1156 q 222 1122 245 1122 q 184 1139 201 1122 q 167 1177 167 1156 q 183 1217 167 1200 q 222 1233 199 1233 z "},"á":{"ha":489,"x_min":50,"x_max":410,"o":"m 134 329 q 156 114 134 173 q 235 56 179 56 q 311 116 288 56 q 334 329 334 177 q 311 543 334 481 q 235 604 288 604 q 156 545 179 604 q 134 329 134 485 m 329 0 l 329 61 q 283 7 314 26 q 212 -12 252 -12 q 89 72 127 -12 q 50 349 50 155 q 89 595 50 517 q 212 673 128 673 q 279 656 250 673 q 329 603 309 638 l 329 665 l 410 665 l 410 0 l 329 0 m 372 993 l 226 757 l 176 757 l 290 993 l 372 993 z "},"à":{"ha":489,"x_min":50,"x_max":410,"o":"m 134 329 q 156 114 134 173 q 235 56 179 56 q 311 116 288 56 q 334 329 334 177 q 311 543 334 481 q 235 604 288 604 q 156 545 179 604 q 134 329 134 485 m 329 0 l 329 61 q 283 7 314 26 q 212 -12 252 -12 q 89 72 127 -12 q 50 349 50 155 q 89 595 50 517 q 212 673 128 673 q 279 656 250 673 q 329 603 309 638 l 329 665 l 410 665 l 410 0 l 329 0 m 198 993 l 312 757 l 262 757 l 117 993 l 198 993 z "},"â":{"ha":489,"x_min":50,"x_max":410,"o":"m 134 329 q 156 114 134 173 q 235 56 179 56 q 311 116 288 56 q 334 329 334 177 q 311 543 334 481 q 235 604 288 604 q 156 545 179 604 q 134 329 134 485 m 329 0 l 329 61 q 283 7 314 26 q 212 -12 252 -12 q 89 72 127 -12 q 50 349 50 155 q 89 595 50 517 q 212 673 128 673 q 279 656 250 673 q 329 603 309 638 l 329 665 l 410 665 l 410 0 l 329 0 m 284 993 l 394 757 l 344 757 l 244 935 l 144 757 l 94 757 l 203 993 l 284 993 z "},"ä":{"ha":489,"x_min":50,"x_max":410,"o":"m 134 329 q 156 114 134 173 q 235 56 179 56 q 311 116 288 56 q 334 329 334 177 q 311 543 334 481 q 235 604 288 604 q 156 545 179 604 q 134 329 134 485 m 329 0 l 329 61 q 283 7 314 26 q 212 -12 252 -12 q 89 72 127 -12 q 50 349 50 155 q 89 595 50 517 q 212 673 128 673 q 279 656 250 673 q 329 603 309 638 l 329 665 l 410 665 l 410 0 l 329 0 m 330 908 q 371 892 354 908 q 387 852 387 876 q 370 814 387 831 q 330 798 353 798 q 292 814 309 798 q 275 852 275 831 q 291 892 275 876 q 330 908 307 908 m 157 908 q 196 892 180 908 q 212 852 212 876 q 196 814 212 831 q 157 798 179 798 q 118 814 135 798 q 101 852 101 831 q 117 892 101 876 q 157 908 134 908 z "},"ã":{"ha":489,"x_min":50,"x_max":410,"o":"m 134 329 q 156 114 134 173 q 235 56 179 56 q 311 116 288 56 q 334 329 334 177 q 311 543 334 481 q 235 604 288 604 q 156 545 179 604 q 134 329 134 485 m 329 0 l 329 61 q 283 7 314 26 q 212 -12 252 -12 q 89 72 127 -12 q 50 349 50 155 q 89 595 50 517 q 212 673 128 673 q 279 656 250 673 q 329 603 309 638 l 329 665 l 410 665 l 410 0 l 329 0 m 399 921 q 360 833 385 861 q 300 804 336 804 q 278 806 288 804 q 256 812 267 808 l 210 829 q 206 830 208 829 q 180 835 190 835 q 152 823 164 835 q 132 787 140 812 l 87 787 q 126 874 100 844 q 189 904 153 904 q 211 903 201 904 q 226 899 220 901 l 275 880 q 291 875 284 877 q 304 873 298 873 q 334 885 321 873 q 357 921 347 897 l 399 921 z "},"å":{"ha":489,"x_min":50,"x_max":410,"o":"m 243 974 q 179 948 205 974 q 153 884 153 922 q 179 819 153 846 q 243 791 205 791 q 306 819 280 791 q 332 884 332 846 q 306 947 332 921 q 243 974 280 974 m 92 884 q 135 990 92 947 q 243 1034 179 1034 q 350 990 307 1034 q 393 884 393 947 q 350 775 393 819 q 243 732 307 732 q 135 775 179 732 q 92 884 92 819 m 134 329 q 156 114 134 173 q 235 56 179 56 q 311 116 288 56 q 334 329 334 177 q 311 543 334 481 q 235 604 288 604 q 156 545 179 604 q 134 329 134 485 m 329 0 l 329 61 q 283 7 314 26 q 212 -12 252 -12 q 89 72 127 -12 q 50 349 50 155 q 89 595 50 517 q 212 673 128 673 q 279 656 250 673 q 329 603 309 638 l 329 665 l 410 665 l 410 0 l 329 0 z "},"ç":{"ha":367,"x_min":57,"x_max":345,"o":"m 345 648 l 345 553 q 306 587 326 576 q 262 597 286 597 q 170 530 199 597 q 140 317 140 463 q 170 132 140 194 q 260 69 200 69 q 307 82 286 69 q 343 119 328 94 l 343 22 q 296 -1 320 7 q 245 -8 273 -8 q 107 79 158 -8 q 57 321 57 166 q 109 585 57 496 q 262 673 160 673 q 306 667 285 673 q 345 648 327 661 m 214 0 l 214 -75 l 225 -75 q 313 -105 282 -75 q 345 -189 345 -135 q 311 -279 345 -249 q 210 -310 277 -310 q 153 -303 184 -310 q 83 -283 122 -297 l 83 -232 q 157 -250 125 -244 q 212 -256 188 -256 q 264 -239 245 -256 q 283 -192 283 -222 q 264 -140 283 -157 q 204 -123 245 -123 q 189 -124 194 -123 q 180 -125 184 -124 l 180 0 l 214 0 z "},"é":{"ha":447,"x_min":45,"x_max":415,"o":"m 337 380 q 310 545 336 486 q 237 603 284 603 q 158 545 188 603 q 125 380 129 488 l 337 380 m 415 313 l 125 313 l 125 290 q 153 119 125 180 q 232 58 182 58 q 299 102 273 58 q 328 220 326 146 l 407 220 q 355 50 402 113 q 231 -12 307 -12 q 91 73 138 -12 q 45 328 45 158 q 95 586 45 494 q 235 677 145 677 q 370 591 324 677 q 415 335 415 505 l 415 313 m 359 993 l 214 757 l 164 757 l 278 993 l 359 993 z "},"è":{"ha":447,"x_min":45,"x_max":415,"o":"m 337 380 q 310 545 336 486 q 237 603 284 603 q 158 545 188 603 q 125 380 129 488 l 337 380 m 415 313 l 125 313 l 125 290 q 153 119 125 180 q 232 58 182 58 q 299 102 273 58 q 328 220 326 146 l 407 220 q 355 50 402 113 q 231 -12 307 -12 q 91 73 138 -12 q 45 328 45 158 q 95 586 45 494 q 235 677 145 677 q 370 591 324 677 q 415 335 415 505 l 415 313 m 186 993 l 300 757 l 250 757 l 104 993 l 186 993 z "},"ê":{"ha":447,"x_min":45,"x_max":415,"o":"m 337 380 q 310 545 336 486 q 237 603 284 603 q 158 545 188 603 q 125 380 129 488 l 337 380 m 415 313 l 125 313 l 125 290 q 153 119 125 180 q 232 58 182 58 q 299 102 273 58 q 328 220 326 146 l 407 220 q 355 50 402 113 q 231 -12 307 -12 q 91 73 138 -12 q 45 328 45 158 q 95 586 45 494 q 235 677 145 677 q 370 591 324 677 q 415 335 415 505 l 415 313 m 272 993 l 382 757 l 332 757 l 232 935 l 132 757 l 82 757 l 191 993 l 272 993 z "},"ë":{"ha":447,"x_min":45,"x_max":415,"o":"m 337 380 q 310 545 336 486 q 237 603 284 603 q 158 545 188 603 q 125 380 129 488 l 337 380 m 415 313 l 125 313 l 125 290 q 153 119 125 180 q 232 58 182 58 q 299 102 273 58 q 328 220 326 146 l 407 220 q 355 50 402 113 q 231 -12 307 -12 q 91 73 138 -12 q 45 328 45 158 q 95 586 45 494 q 235 677 145 677 q 370 591 324 677 q 415 335 415 505 l 415 313 m 318 908 q 358 892 342 908 q 375 852 375 876 q 358 814 375 831 q 318 798 340 798 q 279 814 296 798 q 262 852 262 831 q 279 892 262 876 q 318 908 295 908 m 144 908 q 184 892 168 908 q 200 852 200 876 q 183 814 200 831 q 144 798 167 798 q 106 814 123 798 q 89 852 89 831 q 105 892 89 876 q 144 908 121 908 z "},"í":{"ha":241,"x_min":53,"x_max":248,"o":"m 78 665 l 161 665 l 161 0 l 78 0 l 78 665 m 248 993 l 102 757 l 53 757 l 167 993 l 248 993 z "},"ì":{"ha":241,"x_min":-7,"x_max":189,"o":"m 78 665 l 161 665 l 161 0 l 78 0 l 78 665 m 75 993 l 189 757 l 139 757 l -7 993 l 75 993 z "},"î":{"ha":241,"x_min":-29,"x_max":271,"o":"m 78 665 l 161 665 l 161 0 l 78 0 l 78 665 m 161 993 l 271 757 l 220 757 l 121 935 l 21 757 l -29 757 l 79 993 l 161 993 z "},"ï":{"ha":241,"x_min":-22,"x_max":264,"o":"m 78 665 l 161 665 l 161 0 l 78 0 l 78 665 m 207 908 q 247 892 231 908 q 264 852 264 876 q 247 814 264 831 q 207 798 229 798 q 168 814 185 798 q 151 852 151 831 q 168 892 151 876 q 207 908 184 908 m 33 908 q 73 892 57 908 q 89 852 89 876 q 72 814 89 831 q 33 798 56 798 q -5 814 12 798 q -22 852 -22 831 q -6 892 -22 876 q 33 908 10 908 z "},"ñ":{"ha":494,"x_min":79,"x_max":424,"o":"m 79 665 l 161 665 l 161 604 q 216 656 183 639 q 289 673 248 673 q 392 624 359 673 q 424 461 424 574 l 424 0 l 342 0 l 342 473 q 323 581 342 551 q 260 610 305 610 q 186 567 212 610 q 161 443 161 525 l 161 0 l 79 0 l 79 665 m 410 921 q 371 833 395 861 q 310 804 346 804 q 288 806 298 804 q 267 812 277 808 l 220 829 q 216 830 218 829 q 191 835 200 835 q 162 823 174 835 q 142 787 151 812 l 98 787 q 136 874 110 844 q 199 904 163 904 q 221 903 212 904 q 236 899 230 901 l 286 880 q 301 875 294 877 q 314 873 309 873 q 345 885 332 873 q 367 921 357 897 l 410 921 z "},"ó":{"ha":469,"x_min":45,"x_max":425,"o":"m 235 608 q 154 543 180 608 q 129 334 129 478 q 154 123 129 189 q 235 57 180 57 q 314 124 288 57 q 340 332 340 192 q 314 540 340 472 q 235 608 288 608 m 45 334 q 93 592 45 505 q 236 679 140 679 q 377 591 329 679 q 425 334 425 503 q 377 75 425 163 q 236 -12 330 -12 q 93 75 140 -12 q 45 334 45 161 m 362 993 l 216 757 l 167 757 l 281 993 l 362 993 z "},"ò":{"ha":469,"x_min":45,"x_max":425,"o":"m 235 608 q 154 543 180 608 q 129 334 129 478 q 154 123 129 189 q 235 57 180 57 q 314 124 288 57 q 340 332 340 192 q 314 540 340 472 q 235 608 288 608 m 45 334 q 93 592 45 505 q 236 679 140 679 q 377 591 329 679 q 425 334 425 503 q 377 75 425 163 q 236 -12 330 -12 q 93 75 140 -12 q 45 334 45 161 m 189 993 l 302 757 l 253 757 l 107 993 l 189 993 z "},"ô":{"ha":469,"x_min":45,"x_max":425,"o":"m 235 608 q 154 543 180 608 q 129 334 129 478 q 154 123 129 189 q 235 57 180 57 q 314 124 288 57 q 340 332 340 192 q 314 540 340 472 q 235 608 288 608 m 45 334 q 93 592 45 505 q 236 679 140 679 q 377 591 329 679 q 425 334 425 503 q 377 75 425 163 q 236 -12 330 -12 q 93 75 140 -12 q 45 334 45 161 m 275 993 l 385 757 l 334 757 l 235 935 l 135 757 l 85 757 l 193 993 l 275 993 z "},"ö":{"ha":469,"x_min":45,"x_max":425,"o":"m 235 608 q 154 543 180 608 q 129 334 129 478 q 154 123 129 189 q 235 57 180 57 q 314 124 288 57 q 340 332 340 192 q 314 540 340 472 q 235 608 288 608 m 45 334 q 93 592 45 505 q 236 679 140 679 q 377 591 329 679 q 425 334 425 503 q 377 75 425 163 q 236 -12 330 -12 q 93 75 140 -12 q 45 334 45 161 m 321 908 q 361 892 345 908 q 378 852 378 876 q 360 814 378 831 q 321 798 343 798 q 282 814 299 798 q 265 852 265 831 q 281 892 265 876 q 321 908 298 908 m 147 908 q 187 892 171 908 q 203 852 203 876 q 186 814 203 831 q 147 798 170 798 q 109 814 125 798 q 92 852 92 831 q 108 892 92 876 q 147 908 124 908 z "},"õ":{"ha":469,"x_min":45,"x_max":425,"o":"m 235 608 q 154 543 180 608 q 129 334 129 478 q 154 123 129 189 q 235 57 180 57 q 314 124 288 57 q 340 332 340 192 q 314 540 340 472 q 235 608 288 608 m 45 334 q 93 592 45 505 q 236 679 140 679 q 377 591 329 679 q 425 334 425 503 q 377 75 425 163 q 236 -12 330 -12 q 93 75 140 -12 q 45 334 45 161 m 390 921 q 351 833 376 861 q 290 804 326 804 q 268 806 279 804 q 247 812 258 808 l 200 829 q 197 830 199 829 q 171 835 180 835 q 143 823 155 835 q 122 787 131 812 l 78 787 q 117 874 90 844 q 179 904 143 904 q 201 903 192 904 q 216 899 210 901 l 266 880 q 282 875 275 877 q 294 873 289 873 q 325 885 312 873 q 347 921 338 897 l 390 921 z "},"ú":{"ha":493,"x_min":72,"x_max":421,"o":"m 72 665 l 154 665 l 154 229 q 175 100 154 137 q 248 62 197 62 q 318 99 297 62 q 339 229 339 136 l 339 665 l 421 665 l 421 215 q 379 42 421 96 q 248 -12 338 -12 q 114 42 157 -12 q 72 215 72 97 l 72 665 m 375 993 l 229 757 l 180 757 l 294 993 l 375 993 z "},"ù":{"ha":493,"x_min":72,"x_max":421,"o":"m 72 665 l 154 665 l 154 229 q 175 100 154 137 q 248 62 197 62 q 318 99 297 62 q 339 229 339 136 l 339 665 l 421 665 l 421 215 q 379 42 421 96 q 248 -12 338 -12 q 114 42 157 -12 q 72 215 72 97 l 72 665 m 201 993 l 315 757 l 266 757 l 120 993 l 201 993 z "},"û":{"ha":493,"x_min":72,"x_max":421,"o":"m 72 665 l 154 665 l 154 229 q 175 100 154 137 q 248 62 197 62 q 318 99 297 62 q 339 229 339 136 l 339 665 l 421 665 l 421 215 q 379 42 421 96 q 248 -12 338 -12 q 114 42 157 -12 q 72 215 72 97 l 72 665 m 288 993 l 397 757 l 347 757 l 248 935 l 148 757 l 98 757 l 206 993 l 288 993 z "},"ü":{"ha":493,"x_min":72,"x_max":421,"o":"m 72 665 l 154 665 l 154 229 q 175 100 154 137 q 248 62 197 62 q 318 99 297 62 q 339 229 339 136 l 339 665 l 421 665 l 421 215 q 379 42 421 96 q 248 -12 338 -12 q 114 42 157 -12 q 72 215 72 97 l 72 665 m 334 908 q 374 892 357 908 q 391 852 391 876 q 373 814 391 831 q 334 798 356 798 q 295 814 312 798 q 278 852 278 831 q 294 892 278 876 q 334 908 311 908 m 160 908 q 200 892 184 908 q 216 852 216 876 q 199 814 216 831 q 160 798 182 798 q 121 814 138 798 q 104 852 104 831 q 121 892 104 876 q 160 908 137 908 z "},"†":{"ha":482,"x_min":17,"x_max":465,"o":"m 195 628 l 17 628 l 17 700 l 195 700 l 195 990 l 277 990 l 277 700 l 465 700 l 465 628 l 277 628 l 277 -273 l 195 -273 l 195 628 z "},"°":{"ha":457,"x_min":43,"x_max":414,"o":"m 374 798 q 331 899 374 857 q 229 942 288 942 q 127 900 169 942 q 85 798 85 858 q 127 695 85 737 q 229 653 170 653 q 331 695 289 653 q 374 798 374 737 m 229 983 q 359 929 305 983 q 414 798 414 874 q 359 666 414 720 q 228 612 305 612 q 96 666 150 612 q 43 798 43 720 q 97 929 43 875 q 229 983 152 983 z "},"¢":{"ha":541,"x_min":138,"x_max":425,"o":"m 292 45 q 176 150 215 66 q 138 374 138 233 q 177 605 138 517 q 292 714 217 692 l 292 840 l 351 840 l 351 718 q 384 713 366 718 q 425 699 402 708 l 425 602 q 388 632 408 622 q 345 642 368 642 q 252 570 284 642 q 220 364 220 498 q 253 184 220 250 q 343 118 287 118 q 386 130 365 118 q 425 167 406 142 l 425 65 q 392 49 410 55 q 351 40 374 43 l 351 -78 l 292 -78 l 292 45 z "},"£":{"ha":541,"x_min":74,"x_max":497,"o":"m 195 132 q 214 201 208 169 q 221 261 221 233 q 217 314 221 285 q 204 379 212 343 l 102 379 l 102 433 l 180 433 q 123 611 141 537 q 106 746 106 686 q 161 935 106 866 q 313 1003 216 1003 q 447 948 398 1003 q 497 795 495 893 l 425 758 l 425 764 q 396 884 425 843 q 311 925 368 925 q 224 881 256 925 q 193 758 193 837 q 210 642 193 711 q 272 433 226 572 l 382 433 l 382 379 l 285 379 q 293 319 290 348 q 296 267 296 291 q 286 195 296 231 q 256 118 276 158 q 262 114 258 117 q 371 69 340 69 q 408 89 391 69 q 433 143 425 108 l 497 118 q 448 19 478 51 q 372 -12 418 -12 q 272 22 336 -12 q 184 56 207 56 q 157 46 168 56 q 134 9 146 37 l 74 39 q 118 112 94 90 q 176 134 142 134 q 185 133 179 134 q 195 132 191 132 z "},"§":{"ha":482,"x_min":17,"x_max":465,"o":"m 422 746 l 342 746 l 342 758 q 317 885 342 841 q 245 929 292 929 q 181 896 205 929 q 157 808 157 863 q 173 727 157 760 q 228 665 190 694 q 307 614 259 641 q 366 578 355 587 q 444 478 422 526 q 465 363 465 430 q 424 210 465 271 q 302 125 382 149 q 384 44 357 92 q 410 -68 410 -3 q 362 -224 410 -166 q 233 -282 314 -282 q 107 -218 154 -282 q 61 -45 61 -154 l 61 -24 l 140 -24 l 140 -36 q 165 -163 140 -119 q 236 -207 190 -207 q 301 -174 277 -207 q 325 -83 325 -141 q 301 7 325 -30 q 216 82 277 43 q 184 102 206 89 q 77 183 109 146 q 32 262 47 218 q 17 359 17 307 q 59 512 17 451 q 179 597 100 573 q 97 678 124 630 q 71 791 71 726 q 120 946 71 887 q 249 1004 169 1004 q 375 940 328 1004 q 422 766 422 876 l 422 746 m 380 359 q 343 490 380 441 q 241 538 305 538 q 141 490 178 538 q 103 363 103 443 q 140 232 103 280 q 239 183 177 183 q 342 231 304 183 q 380 359 380 279 z "},"•":{"ha":819,"x_min":208,"x_max":610,"o":"m 208 517 q 267 659 208 600 q 410 717 326 717 q 551 658 492 717 q 610 517 610 600 q 550 375 610 434 q 408 315 491 315 q 267 374 325 315 q 208 517 208 433 z "},"¶":{"ha":694,"x_min":61,"x_max":632,"o":"m 632 960 l 545 960 l 545 0 l 497 0 l 497 960 l 367 960 l 367 0 l 319 0 l 319 530 q 131 600 201 536 q 61 766 61 664 q 135 938 61 873 q 329 1003 208 1003 l 632 1003 l 632 960 z "},"ß":{"ha":509,"x_min":79,"x_max":452,"o":"m 79 777 q 119 999 79 934 q 252 1064 159 1064 q 382 1001 340 1064 q 425 808 425 938 q 401 669 425 722 q 328 595 377 616 q 421 500 391 571 q 452 307 452 429 q 408 70 452 147 q 272 -7 363 -7 q 250 -6 258 -7 q 235 -4 242 -5 l 235 69 q 250 67 242 68 q 273 66 258 66 q 344 126 322 66 q 366 321 366 186 q 335 491 366 435 q 239 551 304 547 l 239 632 q 317 678 294 635 q 340 827 340 721 q 317 949 340 908 q 245 990 293 990 q 182 943 203 990 q 161 798 161 896 l 161 0 l 79 0 l 79 777 z "},"®":{"ha":1157,"x_min":83,"x_max":1074,"o":"m 578 730 l 464 730 l 464 518 l 578 518 q 713 543 676 518 q 750 628 750 567 q 708 706 750 681 q 578 730 667 730 m 593 783 q 772 745 715 783 q 829 625 829 707 q 792 524 829 565 q 692 476 754 484 l 821 210 l 732 210 l 608 465 l 464 465 l 464 210 l 386 210 l 386 783 l 593 783 m 1025 489 q 991 660 1025 579 q 896 804 958 741 q 750 902 831 869 q 578 936 669 936 q 407 903 488 936 q 265 807 327 869 q 166 659 201 741 q 132 489 132 577 q 166 320 132 401 q 264 175 200 239 q 409 77 328 111 q 578 43 490 43 q 748 77 666 43 q 896 176 831 112 q 992 318 959 239 q 1025 489 1025 398 m 578 985 q 769 947 679 985 q 930 839 860 910 q 1037 680 1000 770 q 1074 489 1074 589 q 1037 299 1074 387 q 930 142 1001 211 q 767 32 858 70 q 578 -7 675 -7 q 390 31 479 -7 q 229 140 300 68 q 121 300 158 211 q 83 489 83 390 q 121 678 83 587 q 231 842 159 769 q 388 948 299 911 q 578 985 477 985 z "},"©":{"ha":1157,"x_min":83,"x_max":1074,"o":"m 733 623 q 679 708 720 677 q 579 739 639 739 q 446 673 494 739 q 399 488 399 607 q 447 307 399 373 q 579 240 496 240 q 685 276 641 240 q 742 371 729 311 l 811 371 q 738 235 804 288 q 575 182 672 182 q 389 266 458 182 q 319 492 319 349 q 392 714 319 631 q 583 798 465 798 q 734 749 673 798 q 804 623 795 700 l 733 623 m 1025 489 q 991 660 1025 579 q 896 804 958 741 q 750 902 831 869 q 578 936 669 936 q 407 903 488 936 q 265 807 327 869 q 166 659 201 741 q 132 489 132 577 q 166 320 132 401 q 264 175 200 239 q 409 77 328 111 q 578 43 490 43 q 748 77 666 43 q 896 176 831 112 q 992 318 959 239 q 1025 489 1025 398 m 578 985 q 769 947 679 985 q 930 839 860 910 q 1037 680 1000 770 q 1074 489 1074 589 q 1037 299 1074 387 q 930 142 1001 211 q 767 32 858 70 q 578 -7 675 -7 q 390 31 479 -7 q 229 140 300 68 q 121 300 158 211 q 83 489 83 390 q 121 678 83 587 q 231 842 159 769 q 388 948 299 911 q 578 985 477 985 z "},"™":{"ha":1157,"x_min":186,"x_max":925,"o":"m 628 986 l 746 688 l 856 986 l 925 986 l 925 627 l 885 627 l 885 951 l 762 627 l 729 627 l 600 951 l 600 627 l 559 627 l 559 986 l 628 986 m 471 986 l 471 951 l 353 951 l 353 627 l 307 627 l 307 951 l 186 951 l 186 986 l 471 986 z "},"´":{"ha":694,"x_min":279,"x_max":475,"o":"m 475 993 l 329 757 l 279 757 l 393 993 l 475 993 z "},"¨":{"ha":694,"x_min":204,"x_max":490,"o":"m 433 908 q 474 892 457 908 q 490 852 490 876 q 473 814 490 831 q 433 798 456 798 q 395 814 412 798 q 378 852 378 831 q 394 892 378 876 q 433 908 410 908 m 260 908 q 299 892 283 908 q 315 852 315 876 q 299 814 315 831 q 260 798 282 798 q 221 814 238 798 q 204 852 204 831 q 220 892 204 876 q 260 908 237 908 z "},"≠":{"ha":1157,"x_min":172,"x_max":985,"o":"m 868 751 l 721 564 l 985 564 l 985 510 l 686 510 l 538 318 l 985 318 l 985 262 l 503 262 l 330 43 l 289 75 l 435 262 l 172 262 l 172 318 l 468 318 l 618 510 l 172 510 l 172 564 l 653 564 l 825 785 l 868 751 z "},"Æ":{"ha":682,"x_min":20,"x_max":721,"o":"m 216 990 l 529 990 l 546 907 l 319 907 l 390 550 l 614 550 l 631 469 l 406 469 l 482 83 l 705 83 l 721 0 l 412 0 l 374 200 l 147 200 l 113 0 l 20 0 l 216 990 m 243 741 l 161 279 l 357 279 l 277 741 q 268 806 272 768 q 261 888 264 844 q 253 809 258 846 q 243 741 249 772 z "},"Ø":{"ha":595,"x_min":39,"x_max":554,"o":"m 183 170 q 230 96 200 122 q 297 71 259 71 q 413 172 376 71 q 450 496 450 274 q 447 603 450 543 q 436 733 443 663 l 183 170 m 416 810 q 367 892 397 865 q 297 920 338 920 q 182 819 220 920 q 144 511 144 718 q 149 383 144 452 q 161 235 153 313 l 416 810 m 102 125 q 64 287 76 198 q 52 494 52 376 q 111 879 52 755 q 297 1003 171 1003 q 391 980 350 1003 q 464 911 433 958 l 509 1006 l 554 989 l 494 861 q 530 712 517 808 q 543 494 543 616 q 483 111 543 234 q 297 -12 423 -12 q 203 10 245 -12 q 131 75 161 32 l 81 -22 l 39 -1 l 102 125 z "},"∞":{"ha":1157,"x_min":161,"x_max":996,"o":"m 603 378 q 688 273 640 308 q 798 239 736 239 q 917 292 870 239 q 964 427 964 345 q 921 560 964 507 q 812 612 878 612 q 706 560 753 612 q 603 378 658 507 m 555 454 q 472 558 520 524 q 361 593 423 593 q 241 540 288 593 q 195 406 195 488 q 238 273 195 326 q 346 221 281 221 q 453 273 406 221 q 555 454 500 324 m 567 484 q 666 624 612 578 q 786 669 720 669 q 935 597 874 669 q 996 418 996 526 q 941 237 996 306 q 799 168 887 168 q 687 209 735 168 q 590 346 638 250 q 489 208 542 252 q 372 164 437 164 q 223 236 284 164 q 161 415 161 309 q 216 596 161 528 q 358 665 270 665 q 475 622 425 665 q 567 484 526 578 z "},"±":{"ha":1157,"x_min":172,"x_max":985,"o":"m 985 96 l 985 40 l 172 40 l 172 96 l 985 96 m 606 787 l 606 547 l 985 547 l 985 493 l 606 493 l 606 254 l 551 254 l 551 493 l 172 493 l 172 547 l 551 547 l 551 787 l 606 787 z "},"≤":{"ha":1157,"x_min":179,"x_max":978,"o":"m 978 87 l 978 33 l 179 33 l 179 87 l 978 87 m 978 734 l 271 497 l 978 258 l 978 199 l 179 473 l 179 521 l 978 794 l 978 734 z "},"≥":{"ha":1157,"x_min":179,"x_max":978,"o":"m 978 87 l 978 33 l 179 33 l 179 87 l 978 87 m 978 521 l 978 473 l 179 199 l 179 258 l 886 497 l 179 734 l 179 794 l 978 521 z "},"¥":{"ha":538,"x_min":41,"x_max":510,"o":"m 231 432 l 41 432 l 41 481 l 215 481 l 176 591 l 41 591 l 41 640 l 161 640 l 45 990 l 135 990 l 277 530 l 416 990 l 503 990 l 387 640 l 510 640 l 510 591 l 371 591 l 335 481 l 510 481 l 510 432 l 318 432 l 318 0 l 231 0 l 231 432 z "},"µ":{"ha":742,"x_min":-75,"x_max":693,"o":"m 221 721 l 138 321 q 129 269 132 292 q 126 225 126 245 q 167 95 126 140 q 285 50 208 50 q 434 124 371 50 q 526 336 496 198 l 611 721 l 693 721 l 581 188 q 577 172 579 182 q 564 96 564 109 q 575 64 564 75 q 610 53 587 53 q 622 53 616 53 q 636 54 629 54 l 624 -11 q 618 -12 622 -12 q 572 -20 585 -20 q 504 2 526 -20 q 482 66 482 23 q 483 77 482 71 q 485 97 483 83 q 401 11 456 41 q 273 -20 347 -20 q 158 11 208 -20 q 87 97 109 42 l 7 -288 l -75 -288 l 139 721 l 221 721 z "},"∂":{"ha":694,"x_min":92,"x_max":610,"o":"m 509 392 q 520 490 516 439 q 524 599 524 541 q 498 780 524 720 q 419 839 472 839 q 352 789 389 839 q 278 739 315 739 q 245 752 258 739 q 232 783 232 764 q 273 852 232 823 q 374 882 315 882 q 546 782 482 882 q 610 510 610 682 q 520 132 610 283 q 301 -18 431 -18 q 149 53 207 -18 q 92 243 92 124 q 164 444 92 360 q 339 528 237 528 q 447 494 405 528 q 509 392 488 461 m 484 311 q 452 440 484 396 q 358 485 420 485 q 229 400 279 485 q 179 176 179 315 q 211 55 179 97 q 304 12 243 12 q 433 97 382 12 q 484 311 484 182 z "},"∑":{"ha":875,"x_min":7,"x_max":850,"o":"m 31 999 l 850 999 l 850 916 l 146 916 l 635 382 l 119 -184 l 850 -184 l 850 -267 l 7 -267 l 7 -180 l 517 382 l 31 916 l 31 999 z "},"∏":{"ha":1011,"x_min":111,"x_max":900,"o":"m 111 999 l 900 999 l 900 -267 l 808 -267 l 808 916 l 203 916 l 203 -267 l 111 -267 l 111 999 z "},"π":{"ha":783,"x_min":4,"x_max":764,"o":"m 747 650 l 624 650 l 543 267 q 529 191 534 224 q 524 139 524 158 q 540 83 524 99 q 597 66 557 66 q 631 68 616 66 q 660 73 646 70 l 643 0 q 608 -8 623 -6 q 578 -11 592 -11 q 479 26 515 -11 q 443 126 443 62 q 451 209 443 158 q 481 364 458 260 l 541 650 l 282 650 l 144 0 l 62 0 l 199 650 l 172 650 q 114 628 135 650 q 86 559 94 606 l 4 559 q 62 686 21 651 q 201 721 102 721 l 764 721 l 747 650 z "},"∫":{"ha":643,"x_min":31,"x_max":612,"o":"m 272 392 q 331 889 272 730 q 513 1048 389 1048 q 585 1025 557 1048 q 612 964 612 1001 q 594 915 612 933 q 543 897 575 897 q 474 941 491 897 q 452 985 458 985 q 389 877 406 985 q 371 411 371 769 q 313 -93 371 66 q 131 -252 255 -252 q 59 -228 87 -252 q 31 -171 31 -205 q 50 -118 31 -138 q 102 -98 69 -98 q 140 -107 124 -98 q 167 -136 155 -117 q 175 -166 172 -146 q 192 -187 178 -187 q 254 -75 237 -187 q 272 392 272 37 z "},"ª":{"ha":367,"x_min":37,"x_max":307,"o":"m 100 755 q 117 605 100 647 q 176 564 134 564 q 233 606 216 564 q 250 755 250 648 q 233 906 250 863 q 176 949 216 949 q 117 906 135 949 q 100 755 100 864 m 248 525 l 248 568 q 213 530 236 544 q 160 517 190 517 q 66 576 95 517 q 37 770 37 635 q 67 942 37 887 q 160 997 97 997 q 210 984 188 997 q 248 947 232 972 l 248 990 l 307 990 l 307 525 l 248 525 z "},"º":{"ha":353,"x_min":33,"x_max":319,"o":"m 176 951 q 116 906 135 951 q 97 758 97 860 q 116 611 97 657 q 176 566 135 566 q 236 612 217 566 q 256 757 256 659 q 236 903 256 855 q 176 951 216 951 m 33 758 q 70 940 33 879 q 178 1000 106 1000 q 283 939 248 1000 q 319 758 319 878 q 283 578 319 640 q 178 517 247 517 q 70 577 106 517 q 33 758 33 637 z "},"Ω":{"ha":1075,"x_min":87,"x_max":987,"o":"m 985 82 l 985 0 l 596 0 l 596 69 q 819 278 744 161 q 893 533 893 394 q 794 830 893 715 q 538 945 694 945 q 281 830 381 945 q 182 533 182 715 q 256 278 182 394 q 479 69 331 161 l 479 0 l 92 0 l 92 82 l 332 82 q 148 282 208 172 q 87 533 87 393 q 215 887 87 748 q 538 1026 343 1026 q 860 887 732 1026 q 987 533 987 748 q 927 282 987 393 q 743 82 867 172 l 985 82 z "},"æ":{"ha":734,"x_min":43,"x_max":703,"o":"m 229 345 q 146 307 178 345 q 115 208 115 269 q 145 97 115 135 q 231 58 174 58 q 312 98 282 58 q 342 205 342 137 q 312 308 342 271 q 229 345 282 345 m 625 380 q 598 545 624 486 q 525 603 572 603 q 446 545 475 603 q 412 380 416 488 l 625 380 m 371 90 q 307 15 347 41 q 215 -12 266 -12 q 88 47 134 -12 q 43 215 43 107 q 90 355 43 302 q 211 408 136 408 q 277 397 247 408 q 334 364 308 386 l 334 476 q 309 574 334 544 q 229 604 284 604 q 164 592 197 604 q 98 554 132 579 l 98 636 q 175 667 140 657 q 243 677 211 677 q 331 653 296 677 q 380 578 365 628 q 439 651 402 625 q 524 677 477 677 q 658 592 613 677 q 703 336 703 506 l 703 313 l 412 313 l 412 290 q 440 119 412 180 q 519 58 469 58 q 587 102 561 58 q 615 220 613 146 l 694 221 q 642 50 689 111 q 519 -12 595 -12 q 430 14 468 -12 q 371 90 393 39 z "},"ø":{"ha":469,"x_min":39,"x_max":427,"o":"m 158 110 q 191 71 172 84 q 235 57 211 57 q 314 124 288 57 q 340 332 340 192 q 338 418 340 380 q 329 490 335 457 l 158 110 m 309 555 q 277 594 297 581 q 235 608 258 608 q 154 543 180 608 q 129 334 129 478 q 131 241 129 278 q 138 176 133 205 l 309 555 m 86 81 q 55 190 66 126 q 45 334 45 254 q 93 592 45 505 q 236 679 140 679 q 300 666 271 679 q 353 625 329 652 l 387 693 l 427 675 l 382 585 q 414 480 404 543 q 425 334 425 416 q 377 75 425 163 q 236 -12 330 -12 q 169 1 198 -12 q 115 41 139 14 l 77 -32 l 39 -9 l 86 81 z "},"¿":{"ha":443,"x_min":65,"x_max":395,"o":"m 275 879 q 230 897 248 879 q 212 940 212 914 q 231 984 212 966 q 275 1003 250 1003 q 319 984 300 1003 q 338 940 338 964 q 319 897 338 914 q 275 879 301 879 m 322 429 l 269 429 q 176 389 201 429 q 151 224 151 349 q 169 94 151 126 q 233 61 186 61 q 292 89 272 61 q 311 172 311 117 l 311 248 l 395 248 l 395 183 q 356 33 395 79 q 232 -12 318 -12 q 104 41 144 -12 q 65 216 65 94 q 104 437 65 372 q 235 505 142 502 l 235 745 l 322 745 l 322 429 z "},"¡":{"ha":347,"x_min":111,"x_max":236,"o":"m 174 879 q 129 897 146 879 q 111 940 111 914 q 130 984 111 966 q 174 1003 148 1003 q 217 984 198 1003 q 236 940 236 964 q 218 897 236 914 q 174 879 200 879 m 216 0 l 131 0 l 131 751 l 216 751 l 216 0 z "},"¬":{"ha":1157,"x_min":172,"x_max":985,"o":"m 985 581 l 985 240 l 932 240 l 932 525 l 172 525 l 172 581 l 985 581 z "},"√":{"ha":857,"x_min":36,"x_max":857,"o":"m 857 1103 l 857 1061 l 770 1061 l 366 -28 l 345 -28 l 121 587 l 46 561 l 36 595 l 192 648 l 380 134 l 741 1103 l 857 1103 z "},"ƒ":{"ha":541,"x_min":4,"x_max":485,"o":"m 224 518 l 113 518 l 126 589 l 235 589 l 282 863 q 330 969 294 934 q 425 1004 366 1004 q 450 1002 436 1004 q 485 994 463 1000 l 471 928 q 455 931 463 930 q 440 932 447 932 q 391 909 409 932 q 366 835 374 886 l 322 589 l 440 589 l 429 518 l 310 518 l 207 -111 q 159 -217 195 -181 q 64 -253 123 -253 q 34 -251 49 -253 q 4 -243 19 -248 l 16 -174 q 32 -178 24 -176 q 50 -179 41 -179 q 96 -156 79 -179 q 122 -83 113 -134 l 224 518 z "},"≈":{"ha":1157,"x_min":121,"x_max":1038,"o":"m 1038 329 q 901 254 966 279 q 775 229 836 229 q 575 277 703 229 q 383 325 446 325 q 267 301 327 325 q 121 216 208 277 l 121 279 q 257 353 192 329 q 383 378 322 378 q 584 331 455 378 q 775 283 712 283 q 891 308 831 283 q 1038 392 951 332 l 1038 329 m 1038 549 q 902 475 966 499 q 775 450 837 450 q 575 497 703 450 q 383 545 446 545 q 267 520 327 545 q 121 436 208 496 l 121 498 q 258 574 193 549 q 383 599 323 599 q 584 551 455 599 q 775 503 712 503 q 889 527 830 503 q 1038 612 949 551 l 1038 549 z "},"∆":{"ha":905,"x_min":-8,"x_max":913,"o":"m 783 82 l 453 918 l 121 82 l 783 82 m 511 999 l 913 0 l -8 0 l 395 999 l 511 999 z "},"«":{"ha":476,"x_min":40,"x_max":450,"o":"m 390 628 l 450 593 l 310 332 l 450 71 l 390 37 l 231 332 l 390 628 m 201 628 l 260 593 l 119 332 l 260 71 l 201 37 l 40 332 l 201 628 z "},"»":{"ha":476,"x_min":25,"x_max":435,"o":"m 275 37 l 218 72 l 355 332 l 215 595 l 275 628 l 435 332 l 275 37 m 85 37 l 25 72 l 167 332 l 25 595 l 85 628 l 245 332 l 85 37 z "},"…":{"ha":1389,"x_min":169,"x_max":1221,"o":"m 232 111 q 276 94 258 111 q 294 50 294 76 q 276 6 294 24 q 232 -12 257 -12 q 188 7 207 -12 q 169 50 169 26 q 187 94 169 76 q 232 111 205 111 m 694 111 q 739 94 721 111 q 757 50 757 76 q 738 6 757 24 q 694 -12 720 -12 q 650 7 669 -12 q 631 50 631 26 q 650 94 631 76 q 694 111 668 111 m 1158 111 q 1203 94 1185 111 q 1221 50 1221 76 q 1202 6 1221 24 q 1158 -12 1183 -12 q 1114 7 1133 -12 q 1095 50 1095 26 q 1114 94 1095 76 q 1158 111 1132 111 z "}," ":{"ha":541,"x_min":0,"x_max":0,"o":""},"À":{"ha":509,"x_min":20,"x_max":504,"o":"m 243 741 l 161 279 l 357 279 l 277 741 q 268 806 272 768 q 261 888 264 844 q 253 809 258 846 q 243 741 249 772 m 216 990 l 302 990 l 504 0 l 412 0 l 374 200 l 147 200 l 113 0 l 20 0 l 216 990 m 208 1318 l 322 1082 l 273 1082 l 127 1318 l 208 1318 z "},"Ã":{"ha":509,"x_min":20,"x_max":504,"o":"m 243 741 l 161 279 l 357 279 l 277 741 q 268 806 272 768 q 261 888 264 844 q 253 809 258 846 q 243 741 249 772 m 216 990 l 302 990 l 504 0 l 412 0 l 374 200 l 147 200 l 113 0 l 20 0 l 216 990 m 410 1246 q 371 1158 395 1186 q 310 1129 346 1129 q 288 1131 298 1129 q 267 1137 277 1133 l 220 1154 q 216 1155 218 1154 q 191 1160 200 1160 q 162 1148 174 1160 q 142 1112 151 1137 l 98 1112 q 136 1199 110 1168 q 199 1229 163 1229 q 221 1227 212 1229 q 236 1223 230 1226 l 286 1205 q 301 1200 294 1202 q 314 1198 309 1198 q 345 1210 332 1198 q 367 1246 357 1221 l 410 1246 z "},"Õ":{"ha":595,"x_min":52,"x_max":543,"o":"m 297 920 q 181 818 218 920 q 144 496 144 715 q 181 173 144 276 q 297 71 218 71 q 413 172 376 71 q 450 496 450 273 q 413 819 450 718 q 297 920 376 920 m 52 494 q 111 879 52 755 q 297 1003 171 1003 q 483 879 423 1003 q 543 494 543 755 q 483 111 543 234 q 297 -12 423 -12 q 111 111 171 -12 q 52 494 52 234 m 452 1246 q 413 1158 438 1186 q 353 1129 389 1129 q 331 1131 341 1129 q 309 1137 320 1133 l 262 1154 q 259 1155 261 1154 q 233 1160 243 1160 q 205 1148 217 1160 q 184 1112 193 1137 l 140 1112 q 179 1199 153 1168 q 241 1229 205 1229 q 263 1227 254 1229 q 279 1223 273 1226 l 328 1205 q 344 1200 337 1202 q 357 1198 351 1198 q 387 1210 374 1198 q 410 1246 400 1221 l 452 1246 z "},"Œ":{"ha":829,"x_min":52,"x_max":768,"o":"m 450 96 q 387 16 427 44 q 297 -12 347 -12 q 111 111 171 -12 q 52 494 52 234 q 111 879 52 755 q 297 1003 171 1003 q 387 976 348 1003 q 450 899 427 949 l 450 990 l 762 990 l 762 907 l 541 907 l 541 550 l 758 550 l 758 469 l 541 469 l 541 83 l 768 83 l 768 0 l 450 0 l 450 96 m 297 920 q 181 818 218 920 q 144 496 144 715 q 181 173 144 276 q 297 71 218 71 q 413 172 376 71 q 450 496 450 273 q 413 819 450 718 q 297 920 376 920 z "},"œ":{"ha":743,"x_min":45,"x_max":711,"o":"m 382 86 q 323 14 361 39 q 236 -12 284 -12 q 93 75 140 -12 q 45 334 45 161 q 93 592 45 505 q 236 679 140 679 q 323 653 286 679 q 385 574 361 627 q 447 652 410 625 q 530 679 485 679 q 666 592 620 679 q 711 335 711 505 l 711 313 l 421 313 l 421 290 q 449 119 421 180 q 528 58 477 58 q 595 102 569 58 q 624 221 622 146 l 703 220 q 650 50 698 113 q 526 -12 603 -12 q 439 13 476 -12 q 382 86 401 39 m 633 381 q 606 547 632 488 q 533 607 579 607 q 455 548 484 607 q 421 380 425 488 l 633 381 m 235 607 q 154 542 179 607 q 129 334 129 477 q 154 123 129 189 q 235 58 180 58 q 314 125 288 58 q 340 332 340 193 q 314 539 340 472 q 235 607 288 607 z "},"–":{"ha":694,"x_min":0,"x_max":694,"o":"m 694 314 l 0 314 l 0 370 l 694 370 l 694 314 z "},"—":{"ha":1389,"x_min":0,"x_max":1389,"o":"m 0 314 l 0 370 l 1389 370 l 1389 314 l 0 314 z "},"“":{"ha":469,"x_min":32,"x_max":443,"o":"m 443 971 l 318 673 l 231 717 l 383 1003 l 443 971 m 244 971 l 119 673 l 32 717 l 184 1003 l 244 971 z "},"”":{"ha":469,"x_min":32,"x_max":443,"o":"m 231 705 l 355 1003 l 443 960 l 290 673 l 231 705 m 32 705 l 157 1003 l 244 960 l 92 673 l 32 705 z "},"‘":{"ha":269,"x_min":32,"x_max":244,"o":"m 244 971 l 119 673 l 32 717 l 184 1003 l 244 971 z "},"’":{"ha":269,"x_min":32,"x_max":244,"o":"m 32 705 l 157 1003 l 244 960 l 92 673 l 32 705 z "},"÷":{"ha":1157,"x_min":172,"x_max":985,"o":"m 579 248 q 626 228 607 248 q 646 179 646 208 q 626 132 646 152 q 579 113 607 113 q 532 132 551 113 q 513 179 513 151 q 532 227 513 207 q 579 248 552 248 m 985 441 l 985 386 l 172 386 l 172 441 l 985 441 m 579 715 q 626 696 607 715 q 646 648 646 677 q 626 601 646 621 q 579 581 607 581 q 532 601 551 581 q 513 648 513 621 q 532 696 513 676 q 579 715 551 715 z "},"◊":{"ha":686,"x_min":4,"x_max":682,"o":"m 343 956 l 82 401 l 343 -158 l 604 401 l 343 956 m 343 1121 l 682 401 l 343 -323 l 4 401 l 343 1121 z "},"ÿ":{"ha":425,"x_min":11,"x_max":427,"o":"m 176 -8 l 11 665 l 97 665 l 178 282 q 199 174 191 221 q 214 82 208 126 q 243 221 228 148 q 260 302 258 294 l 345 665 l 427 665 l 187 -254 l 107 -254 l 176 -8 m 298 908 q 339 892 322 908 q 355 852 355 876 q 338 814 355 831 q 298 798 321 798 q 260 814 277 798 q 243 852 243 831 q 259 892 243 876 q 298 908 275 908 m 125 908 q 164 892 149 908 q 180 852 180 876 q 164 814 180 831 q 125 798 147 798 q 86 814 103 798 q 69 852 69 831 q 85 892 69 876 q 125 908 102 908 z "},"Ÿ":{"ha":457,"x_min":-3,"x_max":458,"o":"m 183 432 l -3 990 l 92 990 l 231 534 l 367 990 l 458 990 l 273 429 l 273 0 l 183 0 l 183 432 m 315 1233 q 356 1217 339 1233 q 372 1177 372 1201 q 355 1139 372 1156 q 315 1122 338 1122 q 277 1139 294 1122 q 260 1177 260 1156 q 276 1217 260 1200 q 315 1233 292 1233 m 142 1233 q 181 1217 165 1233 q 197 1177 197 1201 q 181 1139 197 1156 q 142 1122 164 1122 q 103 1139 120 1122 q 86 1177 86 1156 q 102 1217 86 1200 q 142 1233 119 1233 z "},"∕":{"ha":161,"x_min":-153,"x_max":313,"o":"m -153 -12 l 244 1003 l 313 1003 l -85 -12 l -153 -12 z "},"¤":{"ha":842,"x_min":64,"x_max":779,"o":"m 647 602 q 582 760 647 694 q 422 825 516 825 q 263 760 329 825 q 197 602 197 694 q 263 442 197 508 q 422 376 329 376 q 581 442 515 376 q 647 602 647 508 m 243 817 q 328 865 283 849 q 421 880 372 880 q 515 864 470 880 q 600 817 559 848 l 739 957 l 779 917 l 639 778 q 685 693 669 739 q 701 600 701 648 q 686 506 701 551 q 639 422 670 462 l 779 283 l 739 243 l 600 383 q 515 337 561 353 q 421 321 470 321 q 327 336 371 321 q 243 383 283 352 l 103 243 l 64 283 l 204 422 q 158 506 174 461 q 142 600 142 551 q 158 693 142 648 q 204 778 174 739 l 64 917 l 103 957 l 243 817 z "},"‹":{"ha":286,"x_min":40,"x_max":260,"o":"m 201 628 l 260 593 l 119 334 l 260 71 l 201 37 l 40 334 l 201 628 z "},"›":{"ha":286,"x_min":26,"x_max":245,"o":"m 85 37 l 26 72 l 167 332 l 26 595 l 85 628 l 245 332 l 85 37 z "},"":{"ha":503,"x_min":12,"x_max":443,"o":"m 382 929 q 426 911 408 929 q 443 868 443 894 q 425 825 443 843 q 382 807 407 807 q 338 826 357 807 q 319 869 319 844 q 338 912 319 895 q 382 929 356 929 m 340 665 l 422 665 l 422 0 l 340 0 l 340 665 m 89 597 l 12 597 l 12 665 l 89 665 l 89 875 q 118 1018 89 973 q 211 1063 147 1063 q 249 1060 230 1063 q 286 1051 267 1057 l 286 957 q 255 979 270 972 q 225 986 240 986 q 183 964 195 986 q 171 867 171 943 l 171 665 l 286 665 l 286 597 l 171 597 l 171 0 l 89 0 l 89 597 z "},"":{"ha":503,"x_min":12,"x_max":422,"o":"m 340 1051 l 422 1051 l 422 0 l 340 0 l 340 1051 m 89 597 l 12 597 l 12 665 l 89 665 l 89 875 q 118 1018 89 973 q 211 1063 147 1063 q 249 1060 230 1063 q 286 1051 267 1057 l 286 957 q 255 979 270 972 q 225 986 240 986 q 183 964 195 986 q 171 867 171 943 l 171 665 l 286 665 l 286 597 l 171 597 l 171 0 l 89 0 l 89 597 z "},"‡":{"ha":482,"x_min":17,"x_max":465,"o":"m 195 35 l 17 35 l 17 109 l 195 109 l 195 628 l 17 628 l 17 700 l 195 700 l 195 990 l 277 990 l 277 700 l 465 700 l 465 628 l 277 628 l 277 109 l 465 109 l 465 35 l 277 35 l 277 -273 l 195 -273 l 195 35 z "},"·":{"ha":269,"x_min":74,"x_max":196,"o":"m 135 555 q 178 538 161 555 q 196 494 196 520 q 178 452 196 470 q 135 433 160 433 q 92 452 110 433 q 74 496 74 471 q 92 538 74 521 q 135 555 109 555 z "},"‚":{"ha":269,"x_min":-8,"x_max":204,"o":"m -8 -180 l 117 117 l 204 74 l 52 -212 l -8 -180 z "},"„":{"ha":469,"x_min":-8,"x_max":404,"o":"m 191 -180 l 317 117 l 404 74 l 252 -212 l 191 -180 m -8 -180 l 117 117 l 204 74 l 52 -212 l -8 -180 z "},"‰":{"ha":1283,"x_min":43,"x_max":1239,"o":"m 1089 530 q 1028 473 1047 530 q 1008 292 1008 416 q 1028 110 1008 168 q 1089 52 1048 52 q 1151 110 1131 52 q 1171 292 1171 168 q 1151 472 1171 414 q 1089 530 1131 530 m 939 290 q 975 520 939 446 q 1089 595 1012 595 q 1202 520 1166 595 q 1239 290 1239 446 q 1202 61 1239 135 q 1089 -12 1166 -12 q 975 61 1012 -12 q 939 290 939 135 m 700 530 q 639 473 659 530 q 619 292 619 416 q 639 110 619 168 q 700 52 659 52 q 761 110 741 52 q 781 292 781 168 q 761 473 781 416 q 700 530 742 530 m 550 290 q 587 520 550 446 q 700 595 623 595 q 813 520 777 595 q 850 290 850 446 q 813 61 850 135 q 700 -12 777 -12 q 587 61 623 -12 q 550 290 550 135 m 193 939 q 132 881 151 939 q 113 700 113 824 q 132 518 113 576 q 193 460 152 460 q 254 518 235 460 q 273 700 273 576 q 254 881 273 824 q 193 939 235 939 m 43 699 q 79 929 43 855 q 192 1003 115 1003 q 306 928 269 1003 q 343 699 343 854 q 306 470 343 544 q 192 396 269 396 q 79 469 115 396 q 43 699 43 542 m 214 -12 l 611 1003 l 679 1003 l 282 -12 l 214 -12 z "},"Â":{"ha":509,"x_min":20,"x_max":504,"o":"m 243 741 l 161 279 l 357 279 l 277 741 q 268 806 272 768 q 261 888 264 844 q 253 809 258 846 q 243 741 249 772 m 216 990 l 302 990 l 504 0 l 412 0 l 374 200 l 147 200 l 113 0 l 20 0 l 216 990 m 294 1318 l 404 1082 l 354 1082 l 254 1259 l 155 1082 l 104 1082 l 213 1318 l 294 1318 z "},"Ê":{"ha":479,"x_min":100,"x_max":418,"o":"m 100 990 l 411 990 l 411 907 l 191 907 l 191 550 l 408 550 l 408 469 l 191 469 l 191 83 l 418 83 l 418 0 l 100 0 l 100 990 m 293 1318 l 403 1082 l 353 1082 l 253 1259 l 153 1082 l 103 1082 l 212 1318 l 293 1318 z "},"Á":{"ha":509,"x_min":20,"x_max":504,"o":"m 243 741 l 161 279 l 357 279 l 277 741 q 268 806 272 768 q 261 888 264 844 q 253 809 258 846 q 243 741 249 772 m 216 990 l 302 990 l 504 0 l 412 0 l 374 200 l 147 200 l 113 0 l 20 0 l 216 990 m 382 1318 l 236 1082 l 186 1082 l 300 1318 l 382 1318 z "},"Ë":{"ha":479,"x_min":100,"x_max":418,"o":"m 100 990 l 411 990 l 411 907 l 191 907 l 191 550 l 408 550 l 408 469 l 191 469 l 191 83 l 418 83 l 418 0 l 100 0 l 100 990 m 339 1233 q 379 1217 363 1233 q 396 1177 396 1201 q 379 1139 396 1156 q 339 1122 361 1122 q 300 1139 317 1122 q 283 1177 283 1156 q 300 1217 283 1200 q 339 1233 316 1233 m 165 1233 q 205 1217 189 1233 q 221 1177 221 1201 q 204 1139 221 1156 q 165 1122 188 1122 q 127 1139 144 1122 q 110 1177 110 1156 q 126 1217 110 1200 q 165 1233 142 1233 z "},"È":{"ha":479,"x_min":100,"x_max":418,"o":"m 100 990 l 411 990 l 411 907 l 191 907 l 191 550 l 408 550 l 408 469 l 191 469 l 191 83 l 418 83 l 418 0 l 100 0 l 100 990 m 207 1318 l 321 1082 l 271 1082 l 125 1318 l 207 1318 z "},"Í":{"ha":289,"x_min":77,"x_max":272,"o":"m 100 0 l 100 990 l 191 990 l 191 0 l 100 0 m 272 1318 l 126 1082 l 77 1082 l 191 1318 l 272 1318 z "},"Î":{"ha":289,"x_min":-5,"x_max":294,"o":"m 100 0 l 100 990 l 191 990 l 191 0 l 100 0 m 184 1318 l 294 1082 l 244 1082 l 144 1259 l 45 1082 l -5 1082 l 103 1318 l 184 1318 z "},"Ï":{"ha":289,"x_min":1,"x_max":288,"o":"m 100 0 l 100 990 l 191 990 l 191 0 l 100 0 m 231 1233 q 271 1217 254 1233 q 288 1177 288 1201 q 270 1139 288 1156 q 231 1122 253 1122 q 192 1139 209 1122 q 175 1177 175 1156 q 191 1217 175 1200 q 231 1233 208 1233 m 57 1233 q 97 1217 81 1233 q 113 1177 113 1201 q 96 1139 113 1156 q 57 1122 79 1122 q 18 1139 35 1122 q 1 1177 1 1156 q 18 1217 1 1200 q 57 1233 34 1233 z "},"Ì":{"ha":289,"x_min":17,"x_max":212,"o":"m 100 0 l 100 990 l 191 990 l 191 0 l 100 0 m 98 1318 l 212 1082 l 163 1082 l 17 1318 l 98 1318 z "},"Ó":{"ha":595,"x_min":52,"x_max":543,"o":"m 297 920 q 181 818 218 920 q 144 496 144 715 q 181 173 144 276 q 297 71 218 71 q 413 172 376 71 q 450 496 450 273 q 413 819 450 718 q 297 920 376 920 m 52 494 q 111 879 52 755 q 297 1003 171 1003 q 483 879 423 1003 q 543 494 543 755 q 483 111 543 234 q 297 -12 423 -12 q 111 111 171 -12 q 52 494 52 234 m 425 1318 l 279 1082 l 229 1082 l 343 1318 l 425 1318 z "},"Ô":{"ha":595,"x_min":52,"x_max":543,"o":"m 297 920 q 181 818 218 920 q 144 496 144 715 q 181 173 144 276 q 297 71 218 71 q 413 172 376 71 q 450 496 450 273 q 413 819 450 718 q 297 920 376 920 m 52 494 q 111 879 52 755 q 297 1003 171 1003 q 483 879 423 1003 q 543 494 543 755 q 483 111 543 234 q 297 -12 423 -12 q 111 111 171 -12 q 52 494 52 234 m 337 1318 l 447 1082 l 397 1082 l 297 1259 l 197 1082 l 147 1082 l 256 1318 l 337 1318 z "},"":{"ha":1097,"x_min":77,"x_max":1021,"o":"m 567 825 q 566 834 566 829 q 566 850 566 840 q 630 1005 566 934 q 790 1095 694 1077 q 791 1079 791 1088 q 791 1053 791 1070 q 721 893 791 964 q 583 823 651 823 l 578 823 q 573 824 576 823 q 567 825 570 825 m 1021 273 q 882 41 943 106 q 743 -24 820 -24 q 654 -1 709 -24 q 571 21 599 21 q 482 -1 541 21 q 396 -24 424 -24 q 309 6 353 -24 q 221 96 265 36 q 114 296 152 191 q 77 500 77 401 q 161 742 77 648 q 380 835 246 835 q 486 812 427 835 q 570 789 545 789 q 652 812 593 789 q 755 836 711 836 q 890 809 830 836 q 999 725 949 782 q 896 626 930 681 q 863 503 863 572 q 903 367 863 426 q 1021 273 944 308 z "},"Ò":{"ha":595,"x_min":52,"x_max":543,"o":"m 297 920 q 181 818 218 920 q 144 496 144 715 q 181 173 144 276 q 297 71 218 71 q 413 172 376 71 q 450 496 450 273 q 413 819 450 718 q 297 920 376 920 m 52 494 q 111 879 52 755 q 297 1003 171 1003 q 483 879 423 1003 q 543 494 543 755 q 483 111 543 234 q 297 -12 423 -12 q 111 111 171 -12 q 52 494 52 234 m 251 1318 l 365 1082 l 315 1082 l 170 1318 l 251 1318 z "},"Ú":{"ha":619,"x_min":98,"x_max":518,"o":"m 98 990 l 189 990 l 189 282 q 216 113 189 158 q 309 68 242 68 q 401 113 375 68 q 428 282 428 158 l 428 990 l 518 990 l 518 282 q 470 53 518 118 q 309 -12 422 -12 q 146 53 194 -12 q 98 282 98 118 l 98 990 m 437 1318 l 292 1082 l 242 1082 l 356 1318 l 437 1318 z "},"Û":{"ha":619,"x_min":98,"x_max":518,"o":"m 98 990 l 189 990 l 189 282 q 216 113 189 158 q 309 68 242 68 q 401 113 375 68 q 428 282 428 158 l 428 990 l 518 990 l 518 282 q 470 53 518 118 q 309 -12 422 -12 q 146 53 194 -12 q 98 282 98 118 l 98 990 m 350 1318 l 460 1082 l 410 1082 l 310 1259 l 210 1082 l 160 1082 l 269 1318 l 350 1318 z "},"Ù":{"ha":619,"x_min":98,"x_max":518,"o":"m 98 990 l 189 990 l 189 282 q 216 113 189 158 q 309 68 242 68 q 401 113 375 68 q 428 282 428 158 l 428 990 l 518 990 l 518 282 q 470 53 518 118 q 309 -12 422 -12 q 146 53 194 -12 q 98 282 98 118 l 98 990 m 264 1318 l 378 1082 l 328 1082 l 182 1318 l 264 1318 z "},"ı":{"ha":241,"x_min":78,"x_max":161,"o":"m 78 665 l 161 665 l 161 0 l 78 0 l 78 665 z "},"ˆ":{"ha":694,"x_min":197,"x_max":497,"o":"m 387 993 l 497 757 l 447 757 l 347 935 l 248 757 l 197 757 l 306 993 l 387 993 z "},"˜":{"ha":694,"x_min":191,"x_max":503,"o":"m 503 921 q 464 833 488 861 q 403 804 439 804 q 381 806 391 804 q 359 812 370 808 l 313 829 q 309 830 311 829 q 283 835 293 835 q 255 823 267 835 q 235 787 243 812 l 191 787 q 229 874 203 844 q 292 904 256 904 q 314 903 304 904 q 329 899 323 901 l 378 880 q 394 875 387 877 q 407 873 401 873 q 437 885 425 873 q 460 921 450 897 l 503 921 z "},"¯":{"ha":694,"x_min":208,"x_max":486,"o":"m 486 889 l 486 812 l 208 812 l 208 889 l 486 889 z "},"˘":{"ha":694,"x_min":199,"x_max":496,"o":"m 241 951 q 270 876 245 900 q 347 852 296 852 q 424 876 399 852 q 452 951 448 899 l 496 951 q 455 816 490 859 q 347 774 419 774 q 240 816 275 774 q 199 951 204 859 l 241 951 z "},"˙":{"ha":694,"x_min":290,"x_max":403,"o":"m 347 908 q 387 892 371 908 q 403 852 403 876 q 386 814 403 831 q 347 798 370 798 q 308 814 326 798 q 290 852 290 831 q 307 892 290 876 q 347 908 324 908 z "},"˚":{"ha":694,"x_min":196,"x_max":498,"o":"m 349 974 q 284 948 311 974 q 258 884 258 922 q 285 819 258 846 q 349 791 311 791 q 412 819 386 791 q 437 884 437 846 q 412 947 437 921 q 349 974 386 974 m 196 884 q 240 990 196 947 q 347 1034 283 1034 q 455 990 411 1034 q 498 884 498 947 q 454 775 498 819 q 347 730 410 730 q 240 775 283 730 q 196 884 196 819 z "},"¸":{"ha":694,"x_min":208,"x_max":469,"o":"m 339 0 l 339 -75 l 350 -75 q 438 -105 407 -75 q 469 -189 469 -135 q 435 -279 469 -249 q 335 -310 401 -310 q 278 -303 309 -310 q 208 -283 247 -297 l 208 -232 q 281 -250 250 -244 q 336 -256 313 -256 q 389 -239 370 -256 q 408 -192 408 -222 q 389 -140 408 -157 q 329 -123 370 -123 q 314 -124 319 -123 q 304 -125 309 -124 l 304 0 l 339 0 z "},"˝":{"ha":694,"x_min":252,"x_max":543,"o":"m 543 982 l 418 745 l 379 745 l 471 982 l 543 982 m 404 982 l 292 745 l 252 745 l 334 982 l 404 982 z "},"˛":{"ha":694,"x_min":253,"x_max":407,"o":"m 385 0 q 326 -84 345 -43 q 306 -164 306 -125 q 320 -205 306 -193 q 366 -218 334 -218 l 407 -218 l 407 -289 l 367 -289 q 281 -262 310 -289 q 253 -183 253 -236 q 277 -92 253 -138 q 351 0 302 -46 l 385 0 z "},"ˇ":{"ha":694,"x_min":197,"x_max":497,"o":"m 248 982 l 347 803 l 447 982 l 497 982 l 387 745 l 306 745 l 197 982 l 248 982 z "},"Ł":{"ha":411,"x_min":12,"x_max":416,"o":"m 113 443 l 12 375 l 12 460 l 113 526 l 113 990 l 203 990 l 203 568 l 318 644 l 318 558 l 203 482 l 203 82 l 416 82 l 416 0 l 113 0 l 113 443 z "},"ł":{"ha":267,"x_min":12,"x_max":252,"o":"m 92 484 l 12 431 l 12 501 l 92 554 l 92 1051 l 174 1051 l 174 587 l 252 640 l 252 570 l 174 517 l 174 0 l 92 0 l 92 484 z "},"Š":{"ha":509,"x_min":50,"x_max":467,"o":"m 61 153 q 136 92 97 113 q 218 72 176 72 q 332 122 288 72 q 376 252 376 172 q 367 314 376 286 q 339 367 358 342 q 236 458 310 404 q 192 492 206 480 q 83 612 117 553 q 50 745 50 671 q 116 929 50 856 q 281 1003 182 1003 q 358 989 320 1003 q 433 949 397 976 l 433 832 q 366 896 404 874 q 285 918 328 918 q 180 872 220 918 q 140 753 140 827 q 168 645 140 690 q 296 525 195 600 q 433 392 400 448 q 467 257 467 335 q 399 63 467 139 q 227 -12 331 -12 q 140 -1 181 -12 q 61 35 100 11 l 61 153 m 155 1307 l 254 1128 l 354 1307 l 404 1307 l 294 1069 l 213 1069 l 104 1307 l 155 1307 z "},"š":{"ha":367,"x_min":33,"x_max":354,"o":"m 45 131 q 106 79 75 96 q 171 61 138 61 q 246 90 216 61 q 275 165 275 119 q 174 309 275 222 q 164 317 167 314 q 60 426 83 385 q 36 514 36 466 q 82 630 36 585 q 200 676 128 676 q 260 668 231 676 q 318 642 290 659 l 318 557 q 264 594 293 581 q 208 607 236 607 q 141 581 168 607 q 114 517 114 555 q 208 384 114 463 q 214 379 212 381 q 328 262 302 305 q 354 167 354 219 q 304 36 354 87 q 176 -16 254 -16 q 106 -3 140 -16 q 45 33 72 10 l 45 131 m 83 982 l 183 803 l 283 982 l 333 982 l 223 745 l 142 745 l 33 982 l 83 982 z "},"Ž":{"ha":425,"x_min":14,"x_max":414,"o":"m 300 908 l 52 908 l 52 990 l 414 990 l 129 83 l 380 83 l 380 0 l 14 0 l 300 908 m 113 1307 l 212 1128 l 312 1307 l 362 1307 l 252 1069 l 171 1069 l 62 1307 l 113 1307 z "},"ž":{"ha":389,"x_min":-3,"x_max":396,"o":"m 282 597 l 43 597 l 43 665 l 396 665 l 113 71 l 351 71 l 351 0 l -3 0 l 282 597 m 95 982 l 195 803 l 294 982 l 345 982 l 235 745 l 153 745 l 45 982 l 95 982 z "},"¦":{"ha":694,"x_min":317,"x_max":378,"o":"m 378 277 l 378 -237 l 317 -237 l 317 277 l 378 277 m 378 971 l 378 457 l 317 457 l 317 971 l 378 971 z "},"Ð":{"ha":579,"x_min":12,"x_max":526,"o":"m 203 517 l 203 83 l 221 83 q 388 166 341 83 q 435 479 435 249 q 390 823 435 737 q 227 908 345 908 l 203 908 l 203 586 l 318 586 l 318 517 l 203 517 m 113 517 l 12 517 l 12 586 l 113 586 l 113 990 l 227 990 q 460 885 395 990 q 526 492 526 780 q 458 109 526 218 q 222 0 389 0 l 113 0 l 113 517 z "},"ð":{"ha":469,"x_min":45,"x_max":425,"o":"m 292 660 q 253 758 276 707 q 201 861 231 808 l 68 798 l 45 850 l 174 913 q 135 983 155 948 q 92 1051 115 1017 l 178 1051 q 205 1002 191 1028 q 239 945 220 977 l 346 994 l 371 945 l 267 893 q 386 603 346 743 q 425 334 425 463 q 377 75 425 163 q 236 -12 330 -12 q 93 75 140 -12 q 45 334 45 161 q 93 592 45 505 q 236 679 140 679 q 267 674 254 679 q 292 660 281 669 m 235 608 q 154 543 180 608 q 129 334 129 478 q 154 123 129 189 q 235 57 180 57 q 314 124 288 57 q 340 332 340 192 q 314 540 340 472 q 235 608 288 608 z "},"Ý":{"ha":457,"x_min":-3,"x_max":458,"o":"m 183 432 l -3 990 l 92 990 l 231 534 l 367 990 l 458 990 l 273 429 l 273 0 l 183 0 l 183 432 m 357 1318 l 211 1082 l 161 1082 l 275 1318 l 357 1318 z "},"ý":{"ha":425,"x_min":11,"x_max":427,"o":"m 176 -8 l 11 665 l 97 665 l 178 282 q 199 174 191 221 q 214 82 208 126 q 243 221 228 148 q 260 302 258 294 l 345 665 l 427 665 l 187 -254 l 107 -254 l 176 -8 m 340 993 l 194 757 l 144 757 l 258 993 l 340 993 z "},"Þ":{"ha":524,"x_min":100,"x_max":472,"o":"m 191 693 l 191 339 l 240 339 q 349 381 316 339 q 382 519 382 422 q 346 651 382 609 q 233 693 310 693 l 191 693 m 100 990 l 191 990 l 191 774 l 227 774 q 414 710 355 774 q 472 507 472 647 q 416 318 472 378 q 239 258 359 258 l 191 258 l 191 0 l 100 0 l 100 990 z "},"þ":{"ha":489,"x_min":82,"x_max":441,"o":"m 257 56 q 334 114 312 56 q 357 329 357 172 q 334 546 357 487 q 257 604 312 604 q 181 543 203 604 q 158 329 158 481 q 181 116 158 177 q 257 56 203 56 m 82 1051 l 164 1051 l 164 610 q 215 658 186 642 q 279 673 243 673 q 403 594 365 673 q 441 332 441 514 q 402 71 441 154 q 278 -12 362 -12 q 215 2 244 -12 q 164 46 186 17 l 164 -267 l 82 -267 l 82 1051 z "},"−":{"ha":1157,"x_min":172,"x_max":985,"o":"m 985 441 l 985 386 l 172 386 l 172 441 l 985 441 z "},"×":{"ha":1157,"x_min":210,"x_max":949,"o":"m 579 453 l 909 783 l 949 745 l 618 414 l 949 83 l 909 45 l 579 375 l 249 45 l 210 83 l 541 414 l 210 745 l 249 783 l 579 453 z "},"¹":{"ha":357,"x_min":71,"x_max":214,"o":"m 155 940 l 71 940 l 85 990 l 214 990 l 214 396 l 155 396 l 155 940 z "},"²":{"ha":357,"x_min":26,"x_max":304,"o":"m 96 831 l 39 831 l 39 839 q 73 956 39 915 q 171 997 108 997 q 267 959 229 997 q 304 861 304 922 q 266 720 304 808 q 117 446 227 631 l 298 446 l 298 396 l 26 396 q 206 725 166 637 q 245 860 245 812 q 225 923 245 899 q 172 947 205 947 q 115 920 134 947 q 96 840 96 893 l 96 831 z "},"³":{"ha":357,"x_min":40,"x_max":310,"o":"m 100 555 l 100 543 q 117 465 100 490 q 171 439 135 439 q 231 471 210 439 q 252 566 252 504 q 226 667 252 639 q 138 696 201 696 q 127 695 134 696 q 117 694 120 694 l 117 745 l 140 745 q 221 771 197 745 q 245 860 245 798 q 228 924 245 901 q 175 946 210 946 q 126 923 143 946 q 109 860 109 901 l 109 854 l 50 854 q 84 961 52 925 q 176 997 116 997 q 269 959 235 997 q 302 852 302 921 q 283 765 302 799 q 228 722 264 732 q 290 670 270 708 q 310 566 310 631 q 272 435 310 482 q 168 389 235 389 q 74 429 107 389 q 40 543 40 469 l 40 555 l 100 555 z "},"¼":{"ha":842,"x_min":66,"x_max":808,"o":"m 586 195 l 710 195 l 710 286 q 713 395 710 340 q 721 507 715 450 q 683 414 710 477 l 676 398 l 586 195 m 710 151 l 536 151 l 536 197 l 704 554 l 762 554 l 762 195 l 808 195 l 808 151 l 762 151 l 762 0 l 710 0 l 710 151 m 187 -12 l 585 1003 l 653 1003 l 256 -12 l 187 -12 m 147 943 l 66 943 l 79 989 l 203 989 l 203 435 l 147 435 l 147 943 z "},"½":{"ha":842,"x_min":66,"x_max":791,"o":"m 593 406 l 539 406 l 539 412 q 572 523 539 484 q 665 561 604 561 q 756 526 720 561 q 791 435 791 490 q 755 304 791 385 q 614 47 720 223 l 786 47 l 786 0 l 526 0 q 696 303 657 218 q 736 433 736 387 q 716 493 736 470 q 665 515 697 515 q 611 490 629 515 q 593 415 593 465 l 593 406 m 187 -12 l 585 1003 l 653 1003 l 256 -12 l 187 -12 m 147 943 l 66 943 l 79 989 l 203 989 l 203 435 l 147 435 l 147 943 z "},"¾":{"ha":842,"x_min":39,"x_max":808,"o":"m 586 195 l 710 195 l 710 286 q 713 395 710 340 q 721 507 715 450 q 683 414 710 477 l 676 398 l 586 195 m 710 151 l 536 151 l 536 197 l 704 554 l 762 554 l 762 195 l 808 195 l 808 151 l 762 151 l 762 0 l 710 0 l 710 151 m 187 -12 l 585 1003 l 653 1003 l 256 -12 l 187 -12 m 96 585 l 96 572 q 112 498 96 522 q 164 475 129 475 q 220 505 201 475 q 240 593 240 536 q 216 688 240 661 q 132 715 191 715 q 121 715 128 715 q 111 714 115 714 l 111 761 q 120 760 116 760 q 134 760 125 760 q 211 784 188 760 q 235 867 235 809 q 217 928 235 907 q 167 949 200 949 q 120 927 137 949 q 103 868 103 906 l 103 863 l 47 863 q 80 962 50 928 q 170 996 111 996 q 258 960 226 996 q 290 861 290 924 q 271 780 290 810 q 216 741 252 749 q 276 690 256 727 q 296 593 296 654 q 260 472 296 515 q 161 428 224 428 q 71 465 102 428 q 39 572 39 503 l 39 585 l 96 585 z "},"₣":{"ha":739,"x_min":100,"x_max":721,"o":"m 100 990 l 411 990 l 411 907 l 191 907 l 191 555 l 408 555 l 408 476 l 191 476 l 191 0 l 100 0 l 100 990 m 530 665 l 612 665 l 612 575 q 657 646 630 622 q 721 673 685 671 l 721 585 q 636 542 660 581 q 612 397 612 503 l 612 0 l 530 0 l 530 665 z "},"Ğ":{"ha":530,"x_min":52,"x_max":490,"o":"m 490 818 l 407 783 q 361 883 391 849 q 289 917 332 917 q 180 813 216 917 q 144 496 144 709 q 178 170 144 269 q 288 71 212 71 q 374 122 346 71 q 401 285 401 174 l 401 435 l 264 435 l 264 518 l 490 518 l 490 296 q 438 64 490 141 q 283 -14 387 -14 q 107 107 163 -14 q 52 494 52 229 q 111 879 52 754 q 294 1003 170 1003 q 414 955 363 1003 q 490 818 465 907 m 159 1276 q 188 1201 163 1225 q 265 1177 214 1177 q 342 1201 317 1177 q 370 1276 366 1224 l 414 1276 q 373 1141 408 1183 q 265 1099 337 1099 q 158 1141 193 1099 q 117 1276 122 1183 l 159 1276 z "},"ğ":{"ha":489,"x_min":50,"x_max":410,"o":"m 134 329 q 156 114 134 173 q 235 56 179 56 q 311 116 288 56 q 334 329 334 177 q 311 543 334 481 q 235 604 288 604 q 156 545 179 604 q 134 329 134 485 m 65 -69 l 140 -69 l 140 -79 q 164 -171 140 -140 q 233 -201 187 -201 q 305 -168 283 -201 q 328 -61 328 -135 l 328 57 q 283 8 311 25 q 215 -8 254 -8 q 88 73 126 -8 q 50 351 50 153 q 90 595 50 517 q 212 673 129 673 q 279 655 250 673 q 328 603 309 637 l 328 665 l 410 665 l 410 0 q 405 -124 410 -87 q 387 -183 399 -161 q 326 -249 364 -227 q 235 -271 287 -271 q 110 -220 155 -271 q 65 -81 65 -170 l 65 -69 m 138 951 q 167 876 142 900 q 244 852 193 852 q 321 876 296 852 q 349 951 345 899 l 393 951 q 352 816 387 859 q 244 774 316 774 q 137 816 172 774 q 96 951 101 859 l 138 951 z "},"İ":{"ha":289,"x_min":87,"x_max":200,"o":"m 100 0 l 100 990 l 191 990 l 191 0 l 100 0 m 144 1233 q 184 1217 168 1233 q 200 1177 200 1201 q 183 1139 200 1156 q 144 1122 167 1122 q 105 1139 123 1122 q 87 1177 87 1156 q 104 1217 87 1200 q 144 1233 121 1233 z "},"Ş":{"ha":509,"x_min":50,"x_max":467,"o":"m 61 153 q 136 92 97 113 q 218 72 176 72 q 332 122 288 72 q 376 252 376 172 q 367 314 376 286 q 339 367 358 342 q 236 458 310 404 q 192 492 206 480 q 83 612 117 553 q 50 745 50 671 q 116 929 50 856 q 281 1003 182 1003 q 358 989 320 1003 q 433 949 397 976 l 433 832 q 366 896 404 874 q 285 918 328 918 q 180 872 220 918 q 140 753 140 827 q 168 645 140 690 q 296 525 195 600 q 433 392 400 448 q 467 257 467 335 q 399 63 467 139 q 227 -12 331 -12 q 140 -1 181 -12 q 61 35 100 11 l 61 153 m 246 0 l 246 -75 l 257 -75 q 345 -105 314 -75 q 376 -189 376 -135 q 342 -279 376 -249 q 242 -310 309 -310 q 185 -303 216 -310 q 115 -283 154 -297 l 115 -232 q 189 -250 157 -244 q 243 -256 220 -256 q 296 -239 277 -256 q 315 -192 315 -222 q 296 -140 315 -157 q 236 -123 277 -123 q 221 -124 226 -123 q 212 -125 216 -124 l 212 0 l 246 0 z "},"ş":{"ha":367,"x_min":36,"x_max":354,"o":"m 45 131 q 106 79 75 96 q 171 61 138 61 q 246 90 216 61 q 275 165 275 119 q 174 309 275 222 q 164 317 167 314 q 60 426 83 385 q 36 514 36 466 q 82 630 36 585 q 200 676 128 676 q 260 668 231 676 q 318 642 290 659 l 318 557 q 264 594 293 581 q 208 607 236 607 q 141 581 168 607 q 114 517 114 555 q 208 384 114 463 q 214 379 212 381 q 328 262 302 305 q 354 167 354 219 q 304 36 354 87 q 176 -16 254 -16 q 106 -3 140 -16 q 45 33 72 10 l 45 131 m 175 0 l 175 -75 l 186 -75 q 274 -105 243 -75 q 305 -189 305 -135 q 271 -279 305 -249 q 171 -310 237 -310 q 114 -303 144 -310 q 44 -283 83 -297 l 44 -232 q 117 -250 86 -244 q 172 -256 149 -256 q 225 -239 206 -256 q 244 -192 244 -222 q 225 -140 244 -157 q 165 -123 205 -123 q 150 -124 155 -123 q 140 -125 144 -124 l 140 0 l 175 0 z "},"Ć":{"ha":457,"x_min":52,"x_max":447,"o":"m 444 26 q 383 2 416 10 q 315 -7 350 -7 q 116 115 181 -7 q 52 488 52 237 q 121 867 52 738 q 325 996 190 996 q 389 989 359 996 q 447 968 419 982 l 447 871 q 388 901 415 892 q 335 911 361 911 q 192 811 237 911 q 146 500 146 711 q 188 175 146 270 q 329 79 231 79 q 368 83 349 79 q 404 96 387 87 q 425 107 414 100 q 444 121 435 113 l 444 26 m 426 1318 l 280 1082 l 231 1082 l 345 1318 l 426 1318 z "},"ć":{"ha":367,"x_min":57,"x_max":357,"o":"m 345 648 l 345 553 q 306 587 326 576 q 262 597 286 597 q 170 530 199 597 q 140 317 140 463 q 170 132 140 194 q 260 69 200 69 q 307 82 286 69 q 343 119 328 94 l 343 22 q 296 -1 320 7 q 245 -8 273 -8 q 107 79 158 -8 q 57 321 57 166 q 109 585 57 496 q 262 673 160 673 q 306 667 285 673 q 345 648 327 661 m 357 993 l 211 757 l 161 757 l 275 993 l 357 993 z "},"Č":{"ha":457,"x_min":52,"x_max":448,"o":"m 444 26 q 383 2 416 10 q 315 -7 350 -7 q 116 115 181 -7 q 52 488 52 237 q 121 867 52 738 q 325 996 190 996 q 389 989 359 996 q 447 968 419 982 l 447 871 q 388 901 415 892 q 335 911 361 911 q 192 811 237 911 q 146 500 146 711 q 188 175 146 270 q 329 79 231 79 q 368 83 349 79 q 404 96 387 87 q 425 107 414 100 q 444 121 435 113 l 444 26 m 199 1307 l 298 1128 l 398 1307 l 448 1307 l 338 1069 l 257 1069 l 149 1307 l 199 1307 z "},"č":{"ha":367,"x_min":57,"x_max":379,"o":"m 345 648 l 345 553 q 306 587 326 576 q 262 597 286 597 q 170 530 199 597 q 140 317 140 463 q 170 132 140 194 q 260 69 200 69 q 307 82 286 69 q 343 119 328 94 l 343 22 q 296 -1 320 7 q 245 -8 273 -8 q 107 79 158 -8 q 57 321 57 166 q 109 585 57 496 q 262 673 160 673 q 306 667 285 673 q 345 648 327 661 m 130 982 l 229 803 l 329 982 l 379 982 l 269 745 l 188 745 l 79 982 l 130 982 z "},"đ":{"ha":494,"x_min":50,"x_max":489,"o":"m 328 61 q 283 7 313 26 q 212 -12 252 -12 q 89 72 127 -12 q 50 349 50 156 q 90 595 50 517 q 212 673 129 673 q 280 656 251 673 q 328 606 310 639 l 328 847 l 203 847 l 203 905 l 328 905 l 328 1051 l 410 1051 l 410 905 l 489 905 l 489 847 l 410 847 l 410 0 l 328 0 l 328 61 m 134 329 q 156 114 134 172 q 235 56 178 56 q 311 115 288 56 q 334 329 334 175 q 311 544 334 483 q 235 604 288 604 q 156 546 179 604 q 134 329 134 487 z "},"­":{"ha":374,"x_min":53,"x_max":319,"o":"m 53 379 l 319 379 l 319 304 l 53 304 l 53 379 z "},"∙":{"ha":269,"x_min":74,"x_max":196,"o":"m 135 555 q 178 538 161 555 q 196 494 196 520 q 178 452 196 470 q 135 433 160 433 q 92 452 110 433 q 74 496 74 471 q 92 538 74 521 q 135 555 109 555 z "}}}
